<?xml version="1.0" encoding="UTF-8"?>
<!DOCTYPE svg PUBLIC "-//W3C//DTD SVG 1.1//EN" "http://www.w3.org/Graphics/SVG/1.1/DTD/svg11.dtd">
<svg width="112mm" height="66mm" viewBox="0 0 11200 6600" version="1.1" xmlns="http://www.w3.org/2000/svg" xmlns:xlink="http://www.w3.org/1999/xlink" stroke-width="28.222" stroke-linejoin="round" xml:space="preserve">
 <path fill="rgb(255,255,255)" stroke="none" d="M 5571,6575 L -13,6575 -13,-13 11154,-13 11154,6575 5571,6575 Z"/>
 <path fill="none" stroke="rgb(179,179,179)" stroke-linejoin="round" d="M 7024,5797 L 3398,5797 3398,118 10651,118 10651,5797 7024,5797 Z"/>
 <path fill="none" stroke="rgb(179,179,179)" stroke-linejoin="round" d="M 3398,117 L 3398,5796"/>
 <path fill="none" stroke="rgb(179,179,179)" stroke-linejoin="round" d="M 4123,117 L 4123,5796"/>
 <path fill="none" stroke="rgb(179,179,179)" stroke-linejoin="round" d="M 4848,117 L 4848,5796"/>
 <path fill="none" stroke="rgb(179,179,179)" stroke-linejoin="round" d="M 5573,117 L 5573,5796"/>
 <path fill="none" stroke="rgb(179,179,179)" stroke-linejoin="round" d="M 6298,117 L 6298,5796"/>
 <path fill="none" stroke="rgb(179,179,179)" stroke-linejoin="round" d="M 7024,117 L 7024,5796"/>
 <path fill="none" stroke="rgb(179,179,179)" stroke-linejoin="round" d="M 7749,117 L 7749,5796"/>
 <path fill="none" stroke="rgb(179,179,179)" stroke-linejoin="round" d="M 8474,117 L 8474,5796"/>
 <path fill="none" stroke="rgb(179,179,179)" stroke-linejoin="round" d="M 9200,117 L 9200,5796"/>
 <path fill="none" stroke="rgb(179,179,179)" stroke-linejoin="round" d="M 9925,117 L 9925,5796"/>
 <path fill="none" stroke="rgb(179,179,179)" stroke-linejoin="round" d="M 10651,117 L 10651,5796"/>
 <path fill="none" stroke="rgb(179,179,179)" stroke-linejoin="round" d="M 3248,5796 L 3398,5796"/>
 <path fill="none" stroke="rgb(179,179,179)" stroke-linejoin="round" d="M 3248,5796 L 3398,5796"/>
 <path fill="none" stroke="rgb(179,179,179)" stroke-linejoin="round" d="M 3248,3902 L 3398,3902"/>
 <path fill="none" stroke="rgb(179,179,179)" stroke-linejoin="round" d="M 3248,3902 L 3398,3902"/>
 <path fill="none" stroke="rgb(179,179,179)" stroke-linejoin="round" d="M 3248,2010 L 3398,2010"/>
 <path fill="none" stroke="rgb(179,179,179)" stroke-linejoin="round" d="M 3248,2010 L 3398,2010"/>
 <path fill="none" stroke="rgb(179,179,179)" stroke-linejoin="round" d="M 3248,117 L 3398,117"/>
 <path fill="none" stroke="rgb(179,179,179)" stroke-linejoin="round" d="M 3248,117 L 3398,117"/>
 <path fill="none" stroke="rgb(179,179,179)" stroke-linejoin="round" d="M 3398,5796 L 3398,117"/>
 <path fill="none" stroke="rgb(179,179,179)" stroke-linejoin="round" d="M 3398,5946 L 3398,5796"/>
 <path fill="none" stroke="rgb(179,179,179)" stroke-linejoin="round" d="M 3398,5946 L 3398,5796"/>
 <path fill="none" stroke="rgb(179,179,179)" stroke-linejoin="round" d="M 4123,5946 L 4123,5796"/>
 <path fill="none" stroke="rgb(179,179,179)" stroke-linejoin="round" d="M 4123,5946 L 4123,5796"/>
 <path fill="none" stroke="rgb(179,179,179)" stroke-linejoin="round" d="M 4848,5946 L 4848,5796"/>
 <path fill="none" stroke="rgb(179,179,179)" stroke-linejoin="round" d="M 4848,5946 L 4848,5796"/>
 <path fill="none" stroke="rgb(179,179,179)" stroke-linejoin="round" d="M 5573,5946 L 5573,5796"/>
 <path fill="none" stroke="rgb(179,179,179)" stroke-linejoin="round" d="M 5573,5946 L 5573,5796"/>
 <path fill="none" stroke="rgb(179,179,179)" stroke-linejoin="round" d="M 6298,5946 L 6298,5796"/>
 <path fill="none" stroke="rgb(179,179,179)" stroke-linejoin="round" d="M 6298,5946 L 6298,5796"/>
 <path fill="none" stroke="rgb(179,179,179)" stroke-linejoin="round" d="M 7024,5946 L 7024,5796"/>
 <path fill="none" stroke="rgb(179,179,179)" stroke-linejoin="round" d="M 7024,5946 L 7024,5796"/>
 <path fill="none" stroke="rgb(179,179,179)" stroke-linejoin="round" d="M 7749,5946 L 7749,5796"/>
 <path fill="none" stroke="rgb(179,179,179)" stroke-linejoin="round" d="M 7749,5946 L 7749,5796"/>
 <path fill="none" stroke="rgb(179,179,179)" stroke-linejoin="round" d="M 8474,5946 L 8474,5796"/>
 <path fill="none" stroke="rgb(179,179,179)" stroke-linejoin="round" d="M 8474,5946 L 8474,5796"/>
 <path fill="none" stroke="rgb(179,179,179)" stroke-linejoin="round" d="M 9200,5946 L 9200,5796"/>
 <path fill="none" stroke="rgb(179,179,179)" stroke-linejoin="round" d="M 9200,5946 L 9200,5796"/>
 <path fill="none" stroke="rgb(179,179,179)" stroke-linejoin="round" d="M 9925,5946 L 9925,5796"/>
 <path fill="none" stroke="rgb(179,179,179)" stroke-linejoin="round" d="M 9925,5946 L 9925,5796"/>
 <path fill="none" stroke="rgb(179,179,179)" stroke-linejoin="round" d="M 10651,5946 L 10651,5796"/>
 <path fill="none" stroke="rgb(179,179,179)" stroke-linejoin="round" d="M 10651,5946 L 10651,5796"/>
 <path fill="none" stroke="rgb(179,179,179)" stroke-linejoin="round" d="M 3398,5796 L 10651,5796"/>
 <path fill="rgb(0,69,134)" stroke="none" d="M 3398,1537 L 3398,590 10085,590 10085,1537 3398,1537 Z"/>
 <path fill="rgb(0,69,134)" stroke="none" d="M 3398,3429 L 3398,2483 8170,2483 8170,3429 3398,3429 Z"/>
 <path fill="rgb(0,69,134)" stroke="none" d="M 3398,5322 L 3398,4376 9026,4376 9026,5322 3398,5322 Z"/>
 <text class="SVGTextShape"><tspan class="TextParagraph" font-family="Liberation Sans, sans-serif" font-size="353px" font-weight="400"><tspan class="TextPosition" x="1666" y="4970"><tspan fill="rgb(0,0,0)" stroke="none" style="white-space: pre">Terraform</tspan></tspan></tspan></text>
 <text class="SVGTextShape"><tspan class="TextParagraph" font-family="Liberation Sans, sans-serif" font-size="353px" font-weight="400"><tspan class="TextPosition" x="211" y="3077"><tspan fill="rgb(0,0,0)" stroke="none" style="white-space: pre">Ansible Secuencial</tspan></tspan></tspan></text>
 <text class="SVGTextShape"><tspan class="TextParagraph" font-family="Liberation Sans, sans-serif" font-size="353px" font-weight="400"><tspan class="TextPosition" x="661" y="1183"><tspan fill="rgb(0,0,0)" stroke="none" style="white-space: pre">Ansible Paralelo</tspan></tspan></tspan></text>
 <text class="SVGTextShape"><tspan class="TextParagraph" font-family="Liberation Sans, sans-serif" font-size="353px" font-weight="400"><tspan class="TextPosition" x="3305" y="6364"><tspan fill="rgb(0,0,0)" stroke="none" style="white-space: pre">0</tspan></tspan></tspan></text>
 <text class="SVGTextShape"><tspan class="TextParagraph" font-family="Liberation Sans, sans-serif" font-size="353px" font-weight="400"><tspan class="TextPosition" x="3938" y="6364"><tspan fill="rgb(0,0,0)" stroke="none" style="white-space: pre">50</tspan></tspan></tspan></text>
 <text class="SVGTextShape"><tspan class="TextParagraph" font-family="Liberation Sans, sans-serif" font-size="353px" font-weight="400"><tspan class="TextPosition" x="4570" y="6364"><tspan fill="rgb(0,0,0)" stroke="none" style="white-space: pre">100</tspan></tspan></tspan></text>
 <text class="SVGTextShape"><tspan class="TextParagraph" font-family="Liberation Sans, sans-serif" font-size="353px" font-weight="400"><tspan class="TextPosition" x="5296" y="6364"><tspan fill="rgb(0,0,0)" stroke="none" style="white-space: pre">150</tspan></tspan></tspan></text>
 <text class="SVGTextShape"><tspan class="TextParagraph" font-family="Liberation Sans, sans-serif" font-size="353px" font-weight="400"><tspan class="TextPosition" x="6021" y="6364"><tspan fill="rgb(0,0,0)" stroke="none" style="white-space: pre">200</tspan></tspan></tspan></text>
 <text class="SVGTextShape"><tspan class="TextParagraph" font-family="Liberation Sans, sans-serif" font-size="353px" font-weight="400"><tspan class="TextPosition" x="6747" y="6364"><tspan fill="rgb(0,0,0)" stroke="none" style="white-space: pre">250</tspan></tspan></tspan></text>
 <text class="SVGTextShape"><tspan class="TextParagraph" font-family="Liberation Sans, sans-serif" font-size="353px" font-weight="400"><tspan class="TextPosition" x="7472" y="6364"><tspan fill="rgb(0,0,0)" stroke="none" style="white-space: pre">300</tspan></tspan></tspan></text>
 <text class="SVGTextShape"><tspan class="TextParagraph" font-family="Liberation Sans, sans-serif" font-size="353px" font-weight="400"><tspan class="TextPosition" x="8197" y="6364"><tspan fill="rgb(0,0,0)" stroke="none" style="white-space: pre">350</tspan></tspan></tspan></text>
 <text class="SVGTextShape"><tspan class="TextParagraph" font-family="Liberation Sans, sans-serif" font-size="353px" font-weight="400"><tspan class="TextPosition" x="8923" y="6364"><tspan fill="rgb(0,0,0)" stroke="none" style="white-space: pre">400</tspan></tspan></tspan></text>
 <text class="SVGTextShape"><tspan class="TextParagraph" font-family="Liberation Sans, sans-serif" font-size="353px" font-weight="400"><tspan class="TextPosition" x="9648" y="6364"><tspan fill="rgb(0,0,0)" stroke="none" style="white-space: pre">450</tspan></tspan></tspan></text>
 <text class="SVGTextShape"><tspan class="TextParagraph" font-family="Liberation Sans, sans-serif" font-size="353px" font-weight="400"><tspan class="TextPosition" x="10374" y="6364"><tspan fill="rgb(0,0,0)" stroke="none" style="white-space: pre">500</tspan></tspan></tspan></text>
</svg>