<?xml version="1.0" encoding="UTF-8" standalone="no"?>
<!DOCTYPE svg PUBLIC "-//W3C//DTD SVG 1.1//EN"
 "http://www.w3.org/Graphics/SVG/1.1/DTD/svg11.dtd">
<!-- Generated by graphviz version 5.0.1 (0)
 -->
<!-- Pages: 1 -->
<svg width="2016pt" height="836pt"
 viewBox="0.00 0.00 2015.50 836.00" xmlns="http://www.w3.org/2000/svg" xmlns:xlink="http://www.w3.org/1999/xlink">
<g id="graph0" class="graph" transform="scale(1 1) rotate(0) translate(4 832)">
<polygon fill="white" stroke="none" points="-4,4 -4,-832 2011.5,-832 2011.5,4 -4,4"/>
<!-- [root] azurerm_container_group.aci (expand) -->
<g id="node1" class="node">
<title>[root] azurerm_container_group.aci (expand)</title>
<polygon fill="none" stroke="black" points="1498,-324 1274,-324 1274,-288 1498,-288 1498,-324"/>
<text text-anchor="middle" x="1386" y="-302.3" font-family="Times,serif" font-size="14.00">azurerm_container_group.aci</text>
</g>
<!-- [root] data.azurerm_container_group.aci_back (expand) -->
<g id="node2" class="node">
<title>[root] data.azurerm_container_group.aci_back (expand)</title>
<polygon fill="none" stroke="black" points="1031,-252 731,-252 731,-216 1031,-216 1031,-252"/>
<text text-anchor="middle" x="881" y="-230.3" font-family="Times,serif" font-size="14.00">data.azurerm_container_group.aci_back</text>
</g>
<!-- [root] azurerm_container_group.aci (expand)&#45;&gt;[root] data.azurerm_container_group.aci_back (expand) -->
<g id="edge1" class="edge">
<title>[root] azurerm_container_group.aci (expand)&#45;&gt;[root] data.azurerm_container_group.aci_back (expand)</title>
<path fill="none" stroke="black" d="M1273.92,-289.46C1197.15,-278.82 1094.99,-264.66 1014.08,-253.45"/>
<polygon fill="black" stroke="black" points="1014.2,-249.93 1003.82,-252.02 1013.24,-256.86 1014.2,-249.93"/>
</g>
<!-- [root] data.azurerm_container_registry.acr (expand) -->
<g id="node3" class="node">
<title>[root] data.azurerm_container_registry.acr (expand)</title>
<polygon fill="none" stroke="black" points="477.5,-252 202.5,-252 202.5,-216 477.5,-216 477.5,-252"/>
<text text-anchor="middle" x="340" y="-230.3" font-family="Times,serif" font-size="14.00">data.azurerm_container_registry.acr</text>
</g>
<!-- [root] azurerm_container_group.aci (expand)&#45;&gt;[root] data.azurerm_container_registry.acr (expand) -->
<g id="edge2" class="edge">
<title>[root] azurerm_container_group.aci (expand)&#45;&gt;[root] data.azurerm_container_registry.acr (expand)</title>
<path fill="none" stroke="black" d="M1273.56,-297.48C1083.68,-284.77 699.54,-259.06 488.01,-244.91"/>
<polygon fill="black" stroke="black" points="487.97,-241.39 477.76,-244.22 487.5,-248.38 487.97,-241.39"/>
</g>
<!-- [root] var.frontend_container_group_name -->
<g id="node4" class="node">
<title>[root] var.frontend_container_group_name</title>
<polygon fill="none" stroke="black" points="1434.5,-252 1167.5,-252 1167.5,-216 1440.5,-216 1440.5,-246 1434.5,-252"/>
<polyline fill="none" stroke="black" points="1434.5,-252 1434.5,-246"/>
<polyline fill="none" stroke="black" points="1440.5,-246 1434.5,-246"/>
<text text-anchor="middle" x="1304" y="-230.3" font-family="Times,serif" font-size="14.00">var.frontend_container_group_name</text>
</g>
<!-- [root] azurerm_container_group.aci (expand)&#45;&gt;[root] var.frontend_container_group_name -->
<g id="edge3" class="edge">
<title>[root] azurerm_container_group.aci (expand)&#45;&gt;[root] var.frontend_container_group_name</title>
<path fill="none" stroke="black" d="M1365.73,-287.7C1355.5,-278.97 1342.94,-268.24 1331.82,-258.75"/>
<polygon fill="black" stroke="black" points="1333.91,-255.94 1324.04,-252.1 1329.37,-261.26 1333.91,-255.94"/>
</g>
<!-- [root] var.frontend_container_name -->
<g id="node5" class="node">
<title>[root] var.frontend_container_name</title>
<polygon fill="none" stroke="black" points="1575,-180 1357,-180 1357,-144 1581,-144 1581,-174 1575,-180"/>
<polyline fill="none" stroke="black" points="1575,-180 1575,-174"/>
<polyline fill="none" stroke="black" points="1581,-174 1575,-174"/>
<text text-anchor="middle" x="1469" y="-158.3" font-family="Times,serif" font-size="14.00">var.frontend_container_name</text>
</g>
<!-- [root] azurerm_container_group.aci (expand)&#45;&gt;[root] var.frontend_container_name -->
<g id="edge4" class="edge">
<title>[root] azurerm_container_group.aci (expand)&#45;&gt;[root] var.frontend_container_name</title>
<path fill="none" stroke="black" d="M1413.55,-287.96C1426.17,-278.8 1440.24,-266.41 1449,-252 1460.35,-233.33 1465.27,-208.95 1467.4,-190.42"/>
<polygon fill="black" stroke="black" points="1470.9,-190.56 1468.36,-180.28 1463.94,-189.9 1470.9,-190.56"/>
</g>
<!-- [root] var.frontend_image -->
<g id="node6" class="node">
<title>[root] var.frontend_image</title>
<polygon fill="none" stroke="black" points="1680.5,-108 1531.5,-108 1531.5,-72 1686.5,-72 1686.5,-102 1680.5,-108"/>
<polyline fill="none" stroke="black" points="1680.5,-108 1680.5,-102"/>
<polyline fill="none" stroke="black" points="1686.5,-102 1680.5,-102"/>
<text text-anchor="middle" x="1609" y="-86.3" font-family="Times,serif" font-size="14.00">var.frontend_image</text>
</g>
<!-- [root] azurerm_container_group.aci (expand)&#45;&gt;[root] var.frontend_image -->
<g id="edge5" class="edge">
<title>[root] azurerm_container_group.aci (expand)&#45;&gt;[root] var.frontend_image</title>
<path fill="none" stroke="black" d="M1435.24,-287.98C1482.4,-269.08 1551.86,-233.92 1590,-180 1602.72,-162.02 1607.22,-137.23 1608.68,-118.37"/>
<polygon fill="black" stroke="black" points="1612.18,-118.5 1609.22,-108.33 1605.19,-118.12 1612.18,-118.5"/>
</g>
<!-- [root] var.location -->
<g id="node7" class="node">
<title>[root] var.location</title>
<polygon fill="none" stroke="black" points="1758.5,-36 1665.5,-36 1665.5,0 1764.5,0 1764.5,-30 1758.5,-36"/>
<polyline fill="none" stroke="black" points="1758.5,-36 1758.5,-30"/>
<polyline fill="none" stroke="black" points="1764.5,-30 1758.5,-30"/>
<text text-anchor="middle" x="1715" y="-14.3" font-family="Times,serif" font-size="14.00">var.location</text>
</g>
<!-- [root] azurerm_container_group.aci (expand)&#45;&gt;[root] var.location -->
<g id="edge6" class="edge">
<title>[root] azurerm_container_group.aci (expand)&#45;&gt;[root] var.location</title>
<path fill="none" stroke="black" d="M1461.66,-287.98C1489.99,-279.66 1521.67,-267.93 1548,-252 1626.53,-204.51 1651.62,-188.33 1696,-108 1706.54,-88.92 1711.24,-64.57 1713.33,-46.16"/>
<polygon fill="black" stroke="black" points="1716.82,-46.38 1714.28,-36.09 1709.85,-45.72 1716.82,-46.38"/>
</g>
<!-- [root] provider[&quot;registry.terraform.io/hashicorp/azurerm&quot;] -->
<g id="node8" class="node">
<title>[root] provider[&quot;registry.terraform.io/hashicorp/azurerm&quot;]</title>
<polygon fill="none" stroke="black" points="695,-180 340.41,-162 695,-144 1049.59,-162 695,-180"/>
<text text-anchor="middle" x="695" y="-158.3" font-family="Times,serif" font-size="14.00">provider[&quot;registry.terraform.io/hashicorp/azurerm&quot;]</text>
</g>
<!-- [root] data.azurerm_container_group.aci_back (expand)&#45;&gt;[root] provider[&quot;registry.terraform.io/hashicorp/azurerm&quot;] -->
<g id="edge7" class="edge">
<title>[root] data.azurerm_container_group.aci_back (expand)&#45;&gt;[root] provider[&quot;registry.terraform.io/hashicorp/azurerm&quot;]</title>
<path fill="none" stroke="black" d="M835.5,-215.88C807.98,-205.52 772.89,-192.31 744.65,-181.69"/>
<polygon fill="black" stroke="black" points="745.57,-178.29 734.98,-178.05 743.1,-184.84 745.57,-178.29"/>
</g>
<!-- [root] var.backend_container_group_name -->
<g id="node9" class="node">
<title>[root] var.backend_container_group_name</title>
<polygon fill="none" stroke="black" points="1332.5,-180 1067.5,-180 1067.5,-144 1338.5,-144 1338.5,-174 1332.5,-180"/>
<polyline fill="none" stroke="black" points="1332.5,-180 1332.5,-174"/>
<polyline fill="none" stroke="black" points="1338.5,-174 1332.5,-174"/>
<text text-anchor="middle" x="1203" y="-158.3" font-family="Times,serif" font-size="14.00">var.backend_container_group_name</text>
</g>
<!-- [root] data.azurerm_container_group.aci_back (expand)&#45;&gt;[root] var.backend_container_group_name -->
<g id="edge8" class="edge">
<title>[root] data.azurerm_container_group.aci_back (expand)&#45;&gt;[root] var.backend_container_group_name</title>
<path fill="none" stroke="black" d="M959.36,-215.97C1006.29,-205.76 1066.09,-192.76 1114.69,-182.2"/>
<polygon fill="black" stroke="black" points="1115.54,-185.59 1124.57,-180.05 1114.05,-178.75 1115.54,-185.59"/>
</g>
<!-- [root] var.resource_group_name -->
<g id="node10" class="node">
<title>[root] var.resource_group_name</title>
<polygon fill="none" stroke="black" points="316,-180 122,-180 122,-144 322,-144 322,-174 316,-180"/>
<polyline fill="none" stroke="black" points="316,-180 316,-174"/>
<polyline fill="none" stroke="black" points="322,-174 316,-174"/>
<text text-anchor="middle" x="222" y="-158.3" font-family="Times,serif" font-size="14.00">var.resource_group_name</text>
</g>
<!-- [root] data.azurerm_container_group.aci_back (expand)&#45;&gt;[root] var.resource_group_name -->
<g id="edge9" class="edge">
<title>[root] data.azurerm_container_group.aci_back (expand)&#45;&gt;[root] var.resource_group_name</title>
<path fill="none" stroke="black" d="M730.75,-220.92C622.64,-211.65 473.11,-197.68 332.18,-180.11"/>
<polygon fill="black" stroke="black" points="332.41,-176.61 322.05,-178.84 331.54,-183.56 332.41,-176.61"/>
</g>
<!-- [root] data.azurerm_container_registry.acr (expand)&#45;&gt;[root] provider[&quot;registry.terraform.io/hashicorp/azurerm&quot;] -->
<g id="edge10" class="edge">
<title>[root] data.azurerm_container_registry.acr (expand)&#45;&gt;[root] provider[&quot;registry.terraform.io/hashicorp/azurerm&quot;]</title>
<path fill="none" stroke="black" d="M426.39,-215.97C484.38,-204.53 560.16,-189.59 616.44,-178.49"/>
<polygon fill="black" stroke="black" points="617.23,-181.9 626.36,-176.53 615.87,-175.03 617.23,-181.9"/>
</g>
<!-- [root] data.azurerm_container_registry.acr (expand)&#45;&gt;[root] var.resource_group_name -->
<g id="edge12" class="edge">
<title>[root] data.azurerm_container_registry.acr (expand)&#45;&gt;[root] var.resource_group_name</title>
<path fill="none" stroke="black" d="M311.13,-215.88C295.71,-206.72 276.52,-195.34 259.9,-185.48"/>
<polygon fill="black" stroke="black" points="261.36,-182.28 250.98,-180.19 257.79,-188.3 261.36,-182.28"/>
</g>
<!-- [root] var.acr_user -->
<g id="node11" class="node">
<title>[root] var.acr_user</title>
<polygon fill="none" stroke="black" points="98,-180 0,-180 0,-144 104,-144 104,-174 98,-180"/>
<polyline fill="none" stroke="black" points="98,-180 98,-174"/>
<polyline fill="none" stroke="black" points="104,-174 98,-174"/>
<text text-anchor="middle" x="52" y="-158.3" font-family="Times,serif" font-size="14.00">var.acr_user</text>
</g>
<!-- [root] data.azurerm_container_registry.acr (expand)&#45;&gt;[root] var.acr_user -->
<g id="edge11" class="edge">
<title>[root] data.azurerm_container_registry.acr (expand)&#45;&gt;[root] var.acr_user</title>
<path fill="none" stroke="black" d="M263.36,-215.96C221.77,-206.51 169.24,-194.25 114.15,-180.25"/>
<polygon fill="black" stroke="black" points="114.76,-176.79 104.2,-177.71 113.03,-183.57 114.76,-176.79"/>
</g>
<!-- [root] var.subscription_id -->
<g id="node12" class="node">
<title>[root] var.subscription_id</title>
<polygon fill="none" stroke="black" points="713,-108 567,-108 567,-72 719,-72 719,-102 713,-108"/>
<polyline fill="none" stroke="black" points="713,-108 713,-102"/>
<polyline fill="none" stroke="black" points="719,-102 713,-102"/>
<text text-anchor="middle" x="643" y="-86.3" font-family="Times,serif" font-size="14.00">var.subscription_id</text>
</g>
<!-- [root] provider[&quot;registry.terraform.io/hashicorp/azurerm&quot;]&#45;&gt;[root] var.subscription_id -->
<g id="edge13" class="edge">
<title>[root] provider[&quot;registry.terraform.io/hashicorp/azurerm&quot;]&#45;&gt;[root] var.subscription_id</title>
<path fill="none" stroke="black" d="M682.68,-144.41C676.51,-136.12 668.92,-125.89 662.03,-116.62"/>
<polygon fill="black" stroke="black" points="664.73,-114.39 655.96,-108.45 659.11,-118.56 664.73,-114.39"/>
</g>
<!-- [root] var.tenant_id -->
<g id="node13" class="node">
<title>[root] var.tenant_id</title>
<polygon fill="none" stroke="black" points="796,-36 692,-36 692,0 802,0 802,-30 796,-36"/>
<polyline fill="none" stroke="black" points="796,-36 796,-30"/>
<polyline fill="none" stroke="black" points="802,-30 796,-30"/>
<text text-anchor="middle" x="747" y="-14.3" font-family="Times,serif" font-size="14.00">var.tenant_id</text>
</g>
<!-- [root] provider[&quot;registry.terraform.io/hashicorp/azurerm&quot;]&#45;&gt;[root] var.tenant_id -->
<g id="edge14" class="edge">
<title>[root] provider[&quot;registry.terraform.io/hashicorp/azurerm&quot;]&#45;&gt;[root] var.tenant_id</title>
<path fill="none" stroke="black" d="M707.28,-144.62C714.3,-134.53 722.73,-121.07 728,-108 736.02,-88.13 740.87,-64.33 743.67,-46.35"/>
<polygon fill="black" stroke="black" points="747.16,-46.64 745.12,-36.25 740.23,-45.65 747.16,-46.64"/>
</g>
<!-- [root] var.acr_password -->
<g id="node14" class="node">
<title>[root] var.acr_password</title>
<polygon fill="none" stroke="black" points="1707,-756 1573,-756 1573,-720 1713,-720 1713,-750 1707,-756"/>
<polyline fill="none" stroke="black" points="1707,-756 1707,-750"/>
<polyline fill="none" stroke="black" points="1713,-750 1707,-750"/>
<text text-anchor="middle" x="1643" y="-734.3" font-family="Times,serif" font-size="14.00">var.acr_password</text>
</g>
<!-- [root] var.acr_server -->
<g id="node15" class="node">
<title>[root] var.acr_server</title>
<polygon fill="none" stroke="black" points="1769,-684 1657,-684 1657,-648 1775,-648 1775,-678 1769,-684"/>
<polyline fill="none" stroke="black" points="1769,-684 1769,-678"/>
<polyline fill="none" stroke="black" points="1775,-678 1769,-678"/>
<text text-anchor="middle" x="1716" y="-662.3" font-family="Times,serif" font-size="14.00">var.acr_server</text>
</g>
<!-- [root] var.backend_address -->
<g id="node16" class="node">
<title>[root] var.backend_address</title>
<polygon fill="none" stroke="black" points="1879.5,-612 1720.5,-612 1720.5,-576 1885.5,-576 1885.5,-606 1879.5,-612"/>
<polyline fill="none" stroke="black" points="1879.5,-612 1879.5,-606"/>
<polyline fill="none" stroke="black" points="1885.5,-606 1879.5,-606"/>
<text text-anchor="middle" x="1803" y="-590.3" font-family="Times,serif" font-size="14.00">var.backend_address</text>
</g>
<!-- [root] var.cors_origin_to_allow -->
<g id="node17" class="node">
<title>[root] var.cors_origin_to_allow</title>
<polygon fill="none" stroke="black" points="2001.5,-540 1820.5,-540 1820.5,-504 2007.5,-504 2007.5,-534 2001.5,-540"/>
<polyline fill="none" stroke="black" points="2001.5,-540 2001.5,-534"/>
<polyline fill="none" stroke="black" points="2007.5,-534 2001.5,-534"/>
<text text-anchor="middle" x="1914" y="-518.3" font-family="Times,serif" font-size="14.00">var.cors_origin_to_allow</text>
</g>
<!-- [root] output.frontend_container_group_name (expand) -->
<g id="node18" class="node">
<title>[root] output.frontend_container_group_name (expand)</title>
<ellipse fill="none" stroke="black" cx="1239" cy="-450" rx="266.45" ry="18"/>
<text text-anchor="middle" x="1239" y="-446.3" font-family="Times,serif" font-size="14.00">[root] output.frontend_container_group_name (expand)</text>
</g>
<!-- [root] output.frontend_container_group_name (expand)&#45;&gt;[root] azurerm_container_group.aci (expand) -->
<g id="edge15" class="edge">
<title>[root] output.frontend_container_group_name (expand)&#45;&gt;[root] azurerm_container_group.aci (expand)</title>
<path fill="none" stroke="black" d="M1232.47,-431.85C1226.32,-412.53 1220.06,-381.07 1235,-360 1244.87,-346.07 1258.7,-335.78 1274.02,-328.17"/>
<polygon fill="black" stroke="black" points="1275.55,-331.33 1283.2,-324 1272.65,-324.96 1275.55,-331.33"/>
</g>
<!-- [root] provider[&quot;registry.terraform.io/hashicorp/azurerm&quot;] (close) -->
<g id="node19" class="node">
<title>[root] provider[&quot;registry.terraform.io/hashicorp/azurerm&quot;] (close)</title>
<ellipse fill="none" stroke="black" cx="1557" cy="-378" rx="313.04" ry="18"/>
<text text-anchor="middle" x="1557" y="-374.3" font-family="Times,serif" font-size="14.00">[root] provider[&quot;registry.terraform.io/hashicorp/azurerm&quot;] (close)</text>
</g>
<!-- [root] provider[&quot;registry.terraform.io/hashicorp/azurerm&quot;] (close)&#45;&gt;[root] azurerm_container_group.aci (expand) -->
<g id="edge16" class="edge">
<title>[root] provider[&quot;registry.terraform.io/hashicorp/azurerm&quot;] (close)&#45;&gt;[root] azurerm_container_group.aci (expand)</title>
<path fill="none" stroke="black" d="M1515.61,-360.05C1491.94,-350.37 1462.07,-338.14 1436.97,-327.86"/>
<polygon fill="black" stroke="black" points="1438.19,-324.58 1427.61,-324.03 1435.53,-331.06 1438.19,-324.58"/>
</g>
<!-- [root] root -->
<g id="node20" class="node">
<title>[root] root</title>
<ellipse fill="none" stroke="black" cx="1692" cy="-810" rx="58.49" ry="18"/>
<text text-anchor="middle" x="1692" y="-806.3" font-family="Times,serif" font-size="14.00">[root] root</text>
</g>
<!-- [root] root&#45;&gt;[root] var.acr_password -->
<g id="edge17" class="edge">
<title>[root] root&#45;&gt;[root] var.acr_password</title>
<path fill="none" stroke="black" d="M1680.14,-792.05C1674.39,-783.84 1667.35,-773.79 1660.96,-764.66"/>
<polygon fill="black" stroke="black" points="1663.69,-762.46 1655.09,-756.28 1657.96,-766.47 1663.69,-762.46"/>
</g>
<!-- [root] root&#45;&gt;[root] var.acr_server -->
<g id="edge18" class="edge">
<title>[root] root&#45;&gt;[root] var.acr_server</title>
<path fill="none" stroke="black" d="M1704.41,-792.32C1711.05,-782.34 1718.55,-769.09 1722,-756 1727.35,-735.69 1725.35,-711.92 1722.28,-694.06"/>
<polygon fill="black" stroke="black" points="1725.68,-693.19 1720.35,-684.04 1718.81,-694.52 1725.68,-693.19"/>
</g>
<!-- [root] root&#45;&gt;[root] var.backend_address -->
<g id="edge19" class="edge">
<title>[root] root&#45;&gt;[root] var.backend_address</title>
<path fill="none" stroke="black" d="M1708.36,-792.45C1729.54,-769.96 1765.88,-727.54 1784,-684 1792.23,-664.22 1797.07,-640.42 1799.81,-622.41"/>
<polygon fill="black" stroke="black" points="1803.3,-622.68 1801.22,-612.29 1796.37,-621.71 1803.3,-622.68"/>
</g>
<!-- [root] root&#45;&gt;[root] var.cors_origin_to_allow -->
<g id="edge20" class="edge">
<title>[root] root&#45;&gt;[root] var.cors_origin_to_allow</title>
<path fill="none" stroke="black" d="M1716.39,-793.52C1760.41,-764.12 1852.48,-695.61 1895,-612 1904.82,-592.69 1909.57,-568.54 1911.86,-550.27"/>
<polygon fill="black" stroke="black" points="1915.35,-550.59 1912.95,-540.27 1908.39,-549.84 1915.35,-550.59"/>
</g>
<!-- [root] root&#45;&gt;[root] output.frontend_container_group_name (expand) -->
<g id="edge21" class="edge">
<title>[root] root&#45;&gt;[root] output.frontend_container_group_name (expand)</title>
<path fill="none" stroke="black" d="M1633.86,-807.81C1543.34,-802.52 1379,-777.69 1379,-667 1379,-667 1379,-667 1379,-593 1379,-537.85 1324.78,-496.35 1283.83,-472.87"/>
<polygon fill="black" stroke="black" points="1285.49,-469.79 1275.05,-467.99 1282.09,-475.91 1285.49,-469.79"/>
</g>
<!-- [root] root&#45;&gt;[root] provider[&quot;registry.terraform.io/hashicorp/azurerm&quot;] (close) -->
<g id="edge22" class="edge">
<title>[root] root&#45;&gt;[root] provider[&quot;registry.terraform.io/hashicorp/azurerm&quot;] (close)</title>
<path fill="none" stroke="black" d="M1642.77,-800.24C1615.7,-792.91 1583.7,-779.66 1564,-756 1538.12,-724.92 1545,-707.45 1545,-667 1545,-667 1545,-667 1545,-521 1545,-480.85 1549.82,-434.55 1553.35,-406.02"/>
<polygon fill="black" stroke="black" points="1556.84,-406.37 1554.63,-396.01 1549.89,-405.49 1556.84,-406.37"/>
</g>
</g>
</svg>
