<?xml version="1.0" encoding="UTF-8" standalone="no"?>
<!DOCTYPE svg PUBLIC "-//W3C//DTD SVG 1.1//EN"
 "http://www.w3.org/Graphics/SVG/1.1/DTD/svg11.dtd">
<!-- Generated by graphviz version 5.0.1 (0)
 -->
<!-- Pages: 1 -->
<svg width="3306pt" height="548pt"
 viewBox="0.00 0.00 3305.88 548.00" xmlns="http://www.w3.org/2000/svg" xmlns:xlink="http://www.w3.org/1999/xlink">
<g id="graph0" class="graph" transform="scale(1 1) rotate(0) translate(4 544)">
<polygon fill="white" stroke="none" points="-4,4 -4,-544 3301.88,-544 3301.88,4 -4,4"/>
<!-- [root] azurerm_container_registry.acr (expand) -->
<g id="node1" class="node">
<title>[root] azurerm_container_registry.acr (expand)</title>
<polygon fill="none" stroke="black" points="1098.88,-396 859.88,-396 859.88,-360 1098.88,-360 1098.88,-396"/>
<text text-anchor="middle" x="979.38" y="-374.3" font-family="Times,serif" font-size="14.00">azurerm_container_registry.acr</text>
</g>
<!-- [root] azurerm_resource_group.rg (expand) -->
<g id="node2" class="node">
<title>[root] azurerm_resource_group.rg (expand)</title>
<polygon fill="none" stroke="black" points="1838.88,-252 1623.88,-252 1623.88,-216 1838.88,-216 1838.88,-252"/>
<text text-anchor="middle" x="1731.38" y="-230.3" font-family="Times,serif" font-size="14.00">azurerm_resource_group.rg</text>
</g>
<!-- [root] azurerm_container_registry.acr (expand)&#45;&gt;[root] azurerm_resource_group.rg (expand) -->
<g id="edge1" class="edge">
<title>[root] azurerm_container_registry.acr (expand)&#45;&gt;[root] azurerm_resource_group.rg (expand)</title>
<path fill="none" stroke="black" d="M977.53,-359.95C976.37,-339.49 978,-305.74 998.38,-288 1043.63,-248.6 1418.13,-238.49 1613.6,-235.89"/>
<polygon fill="black" stroke="black" points="1613.68,-239.39 1623.63,-235.76 1613.59,-232.39 1613.68,-239.39"/>
</g>
<!-- [root] var.container_registry_name -->
<g id="node3" class="node">
<title>[root] var.container_registry_name</title>
<polygon fill="none" stroke="black" points="1221.38,-324 1007.38,-324 1007.38,-288 1227.38,-288 1227.38,-318 1221.38,-324"/>
<polyline fill="none" stroke="black" points="1221.38,-324 1221.38,-318"/>
<polyline fill="none" stroke="black" points="1227.38,-318 1221.38,-318"/>
<text text-anchor="middle" x="1117.38" y="-302.3" font-family="Times,serif" font-size="14.00">var.container_registry_name</text>
</g>
<!-- [root] azurerm_container_registry.acr (expand)&#45;&gt;[root] var.container_registry_name -->
<g id="edge2" class="edge">
<title>[root] azurerm_container_registry.acr (expand)&#45;&gt;[root] var.container_registry_name</title>
<path fill="none" stroke="black" d="M1013.14,-359.88C1031.6,-350.51 1054.66,-338.81 1074.4,-328.8"/>
<polygon fill="black" stroke="black" points="1076.16,-331.83 1083.49,-324.19 1072.99,-325.59 1076.16,-331.83"/>
</g>
<!-- [root] provider[&quot;registry.terraform.io/hashicorp/azurerm&quot;] -->
<g id="node8" class="node">
<title>[root] provider[&quot;registry.terraform.io/hashicorp/azurerm&quot;]</title>
<polygon fill="none" stroke="black" points="1309.38,-180 954.79,-162 1309.38,-144 1663.97,-162 1309.38,-180"/>
<text text-anchor="middle" x="1309.38" y="-158.3" font-family="Times,serif" font-size="14.00">provider[&quot;registry.terraform.io/hashicorp/azurerm&quot;]</text>
</g>
<!-- [root] azurerm_resource_group.rg (expand)&#45;&gt;[root] provider[&quot;registry.terraform.io/hashicorp/azurerm&quot;] -->
<g id="edge7" class="edge">
<title>[root] azurerm_resource_group.rg (expand)&#45;&gt;[root] provider[&quot;registry.terraform.io/hashicorp/azurerm&quot;]</title>
<path fill="none" stroke="black" d="M1628.69,-215.97C1558.14,-204.26 1465.43,-188.89 1398.1,-177.72"/>
<polygon fill="black" stroke="black" points="1398.37,-174.21 1387.94,-176.03 1397.23,-181.12 1398.37,-174.21"/>
</g>
<!-- [root] var.location -->
<g id="node9" class="node">
<title>[root] var.location</title>
<polygon fill="none" stroke="black" points="1774.88,-180 1681.88,-180 1681.88,-144 1780.88,-144 1780.88,-174 1774.88,-180"/>
<polyline fill="none" stroke="black" points="1774.88,-180 1774.88,-174"/>
<polyline fill="none" stroke="black" points="1780.88,-174 1774.88,-174"/>
<text text-anchor="middle" x="1731.38" y="-158.3" font-family="Times,serif" font-size="14.00">var.location</text>
</g>
<!-- [root] azurerm_resource_group.rg (expand)&#45;&gt;[root] var.location -->
<g id="edge8" class="edge">
<title>[root] azurerm_resource_group.rg (expand)&#45;&gt;[root] var.location</title>
<path fill="none" stroke="black" d="M1731.38,-215.7C1731.38,-207.98 1731.38,-198.71 1731.38,-190.11"/>
<polygon fill="black" stroke="black" points="1734.88,-190.1 1731.38,-180.1 1727.88,-190.1 1734.88,-190.1"/>
</g>
<!-- [root] var.resource_group_name -->
<g id="node10" class="node">
<title>[root] var.resource_group_name</title>
<polygon fill="none" stroke="black" points="1903.38,-108 1709.38,-108 1709.38,-72 1909.38,-72 1909.38,-102 1903.38,-108"/>
<polyline fill="none" stroke="black" points="1903.38,-108 1903.38,-102"/>
<polyline fill="none" stroke="black" points="1909.38,-102 1903.38,-102"/>
<text text-anchor="middle" x="1809.38" y="-86.3" font-family="Times,serif" font-size="14.00">var.resource_group_name</text>
</g>
<!-- [root] azurerm_resource_group.rg (expand)&#45;&gt;[root] var.resource_group_name -->
<g id="edge9" class="edge">
<title>[root] azurerm_resource_group.rg (expand)&#45;&gt;[root] var.resource_group_name</title>
<path fill="none" stroke="black" d="M1756.43,-215.77C1768.13,-206.48 1781.23,-194.04 1789.38,-180 1800.34,-161.11 1805.3,-136.74 1807.54,-118.28"/>
<polygon fill="black" stroke="black" points="1811.03,-118.48 1808.57,-108.17 1804.07,-117.77 1811.03,-118.48"/>
</g>
<!-- [root] azurerm_cosmosdb_account.db_account (expand) -->
<g id="node4" class="node">
<title>[root] azurerm_cosmosdb_account.db_account (expand)</title>
<polygon fill="none" stroke="black" points="1417.88,-396 1116.88,-396 1116.88,-360 1417.88,-360 1417.88,-396"/>
<text text-anchor="middle" x="1267.38" y="-374.3" font-family="Times,serif" font-size="14.00">azurerm_cosmosdb_account.db_account</text>
</g>
<!-- [root] azurerm_cosmosdb_account.db_account (expand)&#45;&gt;[root] azurerm_resource_group.rg (expand) -->
<g id="edge3" class="edge">
<title>[root] azurerm_cosmosdb_account.db_account (expand)&#45;&gt;[root] azurerm_resource_group.rg (expand)</title>
<path fill="none" stroke="black" d="M1264.35,-359.88C1261.86,-339.68 1261.35,-306.51 1280.38,-288 1303.94,-265.09 1488.13,-249.54 1613.71,-241.48"/>
<polygon fill="black" stroke="black" points="1614.02,-244.97 1623.78,-240.84 1613.58,-237.98 1614.02,-244.97"/>
</g>
<!-- [root] var.cosmos_db_account_name -->
<g id="node5" class="node">
<title>[root] var.cosmos_db_account_name</title>
<polygon fill="none" stroke="black" points="1511.38,-324 1289.38,-324 1289.38,-288 1517.38,-288 1517.38,-318 1511.38,-324"/>
<polyline fill="none" stroke="black" points="1511.38,-324 1511.38,-318"/>
<polyline fill="none" stroke="black" points="1517.38,-318 1511.38,-318"/>
<text text-anchor="middle" x="1403.38" y="-302.3" font-family="Times,serif" font-size="14.00">var.cosmos_db_account_name</text>
</g>
<!-- [root] azurerm_cosmosdb_account.db_account (expand)&#45;&gt;[root] var.cosmos_db_account_name -->
<g id="edge4" class="edge">
<title>[root] azurerm_cosmosdb_account.db_account (expand)&#45;&gt;[root] var.cosmos_db_account_name</title>
<path fill="none" stroke="black" d="M1300.65,-359.88C1318.84,-350.51 1341.57,-338.81 1361.02,-328.8"/>
<polygon fill="black" stroke="black" points="1362.69,-331.88 1369.98,-324.19 1359.49,-325.65 1362.69,-331.88"/>
</g>
<!-- [root] azurerm_redis_cache.redis (expand) -->
<g id="node6" class="node">
<title>[root] azurerm_redis_cache.redis (expand)</title>
<polygon fill="none" stroke="black" points="1715.88,-396 1508.88,-396 1508.88,-360 1715.88,-360 1715.88,-396"/>
<text text-anchor="middle" x="1612.38" y="-374.3" font-family="Times,serif" font-size="14.00">azurerm_redis_cache.redis</text>
</g>
<!-- [root] azurerm_redis_cache.redis (expand)&#45;&gt;[root] azurerm_resource_group.rg (expand) -->
<g id="edge5" class="edge">
<title>[root] azurerm_redis_cache.redis (expand)&#45;&gt;[root] azurerm_resource_group.rg (expand)</title>
<path fill="none" stroke="black" d="M1647.73,-359.96C1663.36,-351.01 1680.97,-338.81 1693.38,-324 1708.49,-305.96 1718.44,-281.02 1724.36,-262.13"/>
<polygon fill="black" stroke="black" points="1727.77,-262.92 1727.23,-252.34 1721.06,-260.95 1727.77,-262.92"/>
</g>
<!-- [root] var.redis_db_name -->
<g id="node7" class="node">
<title>[root] var.redis_db_name</title>
<polygon fill="none" stroke="black" points="1678.88,-324 1535.88,-324 1535.88,-288 1684.88,-288 1684.88,-318 1678.88,-324"/>
<polyline fill="none" stroke="black" points="1678.88,-324 1678.88,-318"/>
<polyline fill="none" stroke="black" points="1684.88,-318 1678.88,-318"/>
<text text-anchor="middle" x="1610.38" y="-302.3" font-family="Times,serif" font-size="14.00">var.redis_db_name</text>
</g>
<!-- [root] azurerm_redis_cache.redis (expand)&#45;&gt;[root] var.redis_db_name -->
<g id="edge6" class="edge">
<title>[root] azurerm_redis_cache.redis (expand)&#45;&gt;[root] var.redis_db_name</title>
<path fill="none" stroke="black" d="M1611.89,-359.7C1611.66,-351.98 1611.4,-342.71 1611.15,-334.11"/>
<polygon fill="black" stroke="black" points="1614.65,-334 1610.87,-324.1 1607.66,-334.2 1614.65,-334"/>
</g>
<!-- [root] var.subscription_id -->
<g id="node18" class="node">
<title>[root] var.subscription_id</title>
<polygon fill="none" stroke="black" points="1327.38,-108 1181.38,-108 1181.38,-72 1333.38,-72 1333.38,-102 1327.38,-108"/>
<polyline fill="none" stroke="black" points="1327.38,-108 1327.38,-102"/>
<polyline fill="none" stroke="black" points="1333.38,-102 1327.38,-102"/>
<text text-anchor="middle" x="1257.38" y="-86.3" font-family="Times,serif" font-size="14.00">var.subscription_id</text>
</g>
<!-- [root] provider[&quot;registry.terraform.io/hashicorp/azurerm&quot;]&#45;&gt;[root] var.subscription_id -->
<g id="edge17" class="edge">
<title>[root] provider[&quot;registry.terraform.io/hashicorp/azurerm&quot;]&#45;&gt;[root] var.subscription_id</title>
<path fill="none" stroke="black" d="M1297.06,-144.41C1290.89,-136.12 1283.3,-125.89 1276.41,-116.62"/>
<polygon fill="black" stroke="black" points="1279.11,-114.39 1270.34,-108.45 1273.49,-118.56 1279.11,-114.39"/>
</g>
<!-- [root] var.tenant_id -->
<g id="node19" class="node">
<title>[root] var.tenant_id</title>
<polygon fill="none" stroke="black" points="1410.38,-36 1306.38,-36 1306.38,0 1416.38,0 1416.38,-30 1410.38,-36"/>
<polyline fill="none" stroke="black" points="1410.38,-36 1410.38,-30"/>
<polyline fill="none" stroke="black" points="1416.38,-30 1410.38,-30"/>
<text text-anchor="middle" x="1361.38" y="-14.3" font-family="Times,serif" font-size="14.00">var.tenant_id</text>
</g>
<!-- [root] provider[&quot;registry.terraform.io/hashicorp/azurerm&quot;]&#45;&gt;[root] var.tenant_id -->
<g id="edge18" class="edge">
<title>[root] provider[&quot;registry.terraform.io/hashicorp/azurerm&quot;]&#45;&gt;[root] var.tenant_id</title>
<path fill="none" stroke="black" d="M1321.66,-144.62C1328.68,-134.53 1337.11,-121.07 1342.38,-108 1350.4,-88.13 1355.25,-64.33 1358.05,-46.35"/>
<polygon fill="black" stroke="black" points="1361.54,-46.64 1359.5,-36.25 1354.61,-45.65 1361.54,-46.64"/>
</g>
<!-- [root] azurerm_storage_account.sa (expand) -->
<g id="node11" class="node">
<title>[root] azurerm_storage_account.sa (expand)</title>
<polygon fill="none" stroke="black" points="2491.38,-324 2271.38,-324 2271.38,-288 2491.38,-288 2491.38,-324"/>
<text text-anchor="middle" x="2381.38" y="-302.3" font-family="Times,serif" font-size="14.00">azurerm_storage_account.sa</text>
</g>
<!-- [root] azurerm_storage_account.sa (expand)&#45;&gt;[root] azurerm_resource_group.rg (expand) -->
<g id="edge10" class="edge">
<title>[root] azurerm_storage_account.sa (expand)&#45;&gt;[root] azurerm_resource_group.rg (expand)</title>
<path fill="none" stroke="black" d="M2271.2,-289.69C2266.53,-289.1 2261.91,-288.54 2257.38,-288 2117.33,-271.35 1955.88,-255.59 1849.19,-245.65"/>
<polygon fill="black" stroke="black" points="1849.32,-242.15 1839.04,-244.71 1848.68,-249.12 1849.32,-242.15"/>
</g>
<!-- [root] var.frontend_container_group_name -->
<g id="node12" class="node">
<title>[root] var.frontend_container_group_name</title>
<polygon fill="none" stroke="black" points="2593.88,-252 2326.88,-252 2326.88,-216 2599.88,-216 2599.88,-246 2593.88,-252"/>
<polyline fill="none" stroke="black" points="2593.88,-252 2593.88,-246"/>
<polyline fill="none" stroke="black" points="2599.88,-246 2593.88,-246"/>
<text text-anchor="middle" x="2463.38" y="-230.3" font-family="Times,serif" font-size="14.00">var.frontend_container_group_name</text>
</g>
<!-- [root] azurerm_storage_account.sa (expand)&#45;&gt;[root] var.frontend_container_group_name -->
<g id="edge11" class="edge">
<title>[root] azurerm_storage_account.sa (expand)&#45;&gt;[root] var.frontend_container_group_name</title>
<path fill="none" stroke="black" d="M2401.65,-287.7C2411.88,-278.97 2424.44,-268.24 2435.56,-258.75"/>
<polygon fill="black" stroke="black" points="2438.01,-261.26 2443.34,-252.1 2433.46,-255.94 2438.01,-261.26"/>
</g>
<!-- [root] var.storage_account_name -->
<g id="node13" class="node">
<title>[root] var.storage_account_name</title>
<polygon fill="none" stroke="black" points="2394.88,-180 2195.88,-180 2195.88,-144 2400.88,-144 2400.88,-174 2394.88,-180"/>
<polyline fill="none" stroke="black" points="2394.88,-180 2394.88,-174"/>
<polyline fill="none" stroke="black" points="2400.88,-174 2394.88,-174"/>
<text text-anchor="middle" x="2298.38" y="-158.3" font-family="Times,serif" font-size="14.00">var.storage_account_name</text>
</g>
<!-- [root] azurerm_storage_account.sa (expand)&#45;&gt;[root] var.storage_account_name -->
<g id="edge12" class="edge">
<title>[root] azurerm_storage_account.sa (expand)&#45;&gt;[root] var.storage_account_name</title>
<path fill="none" stroke="black" d="M2353,-287.86C2340.25,-278.75 2326.13,-266.44 2317.38,-252 2306.09,-233.36 2301.45,-208.97 2299.57,-190.44"/>
<polygon fill="black" stroke="black" points="2303.04,-189.98 2298.75,-180.29 2296.07,-190.54 2303.04,-189.98"/>
</g>
<!-- [root] azurerm_storage_container.sc (expand) -->
<g id="node14" class="node">
<title>[root] azurerm_storage_container.sc (expand)</title>
<polygon fill="none" stroke="black" points="2221.38,-396 1991.38,-396 1991.38,-360 2221.38,-360 2221.38,-396"/>
<text text-anchor="middle" x="2106.38" y="-374.3" font-family="Times,serif" font-size="14.00">azurerm_storage_container.sc</text>
</g>
<!-- [root] azurerm_storage_container.sc (expand)&#45;&gt;[root] azurerm_storage_account.sa (expand) -->
<g id="edge13" class="edge">
<title>[root] azurerm_storage_container.sc (expand)&#45;&gt;[root] azurerm_storage_account.sa (expand)</title>
<path fill="none" stroke="black" d="M2173.3,-359.97C2212.89,-349.89 2263.2,-337.08 2304.43,-326.59"/>
<polygon fill="black" stroke="black" points="2305.33,-329.97 2314.16,-324.11 2303.6,-323.19 2305.33,-329.97"/>
</g>
<!-- [root] var.storage_container_name -->
<g id="node15" class="node">
<title>[root] var.storage_container_name</title>
<polygon fill="none" stroke="black" points="2208.88,-324 1997.88,-324 1997.88,-288 2214.88,-288 2214.88,-318 2208.88,-324"/>
<polyline fill="none" stroke="black" points="2208.88,-324 2208.88,-318"/>
<polyline fill="none" stroke="black" points="2214.88,-318 2208.88,-318"/>
<text text-anchor="middle" x="2106.38" y="-302.3" font-family="Times,serif" font-size="14.00">var.storage_container_name</text>
</g>
<!-- [root] azurerm_storage_container.sc (expand)&#45;&gt;[root] var.storage_container_name -->
<g id="edge14" class="edge">
<title>[root] azurerm_storage_container.sc (expand)&#45;&gt;[root] var.storage_container_name</title>
<path fill="none" stroke="black" d="M2106.38,-359.7C2106.38,-351.98 2106.38,-342.71 2106.38,-334.11"/>
<polygon fill="black" stroke="black" points="2109.88,-334.1 2106.38,-324.1 2102.88,-334.1 2109.88,-334.1"/>
</g>
<!-- [root] azurerm_virtual_network.vnet (expand) -->
<g id="node16" class="node">
<title>[root] azurerm_virtual_network.vnet (expand)</title>
<polygon fill="none" stroke="black" points="1969.38,-396 1737.38,-396 1737.38,-360 1969.38,-360 1969.38,-396"/>
<text text-anchor="middle" x="1853.38" y="-374.3" font-family="Times,serif" font-size="14.00">azurerm_virtual_network.vnet</text>
</g>
<!-- [root] azurerm_virtual_network.vnet (expand)&#45;&gt;[root] azurerm_resource_group.rg (expand) -->
<g id="edge15" class="edge">
<title>[root] azurerm_virtual_network.vnet (expand)&#45;&gt;[root] azurerm_resource_group.rg (expand)</title>
<path fill="none" stroke="black" d="M1816.28,-359.98C1800.18,-351.11 1782.13,-338.96 1769.38,-324 1754.03,-305.98 1744.06,-280.83 1738.2,-261.87"/>
<polygon fill="black" stroke="black" points="1741.51,-260.68 1735.37,-252.05 1734.78,-262.63 1741.51,-260.68"/>
</g>
<!-- [root] var.virtual_network_name -->
<g id="node17" class="node">
<title>[root] var.virtual_network_name</title>
<polygon fill="none" stroke="black" points="1973.88,-324 1778.88,-324 1778.88,-288 1979.88,-288 1979.88,-318 1973.88,-324"/>
<polyline fill="none" stroke="black" points="1973.88,-324 1973.88,-318"/>
<polyline fill="none" stroke="black" points="1979.88,-318 1973.88,-318"/>
<text text-anchor="middle" x="1879.38" y="-302.3" font-family="Times,serif" font-size="14.00">var.virtual_network_name</text>
</g>
<!-- [root] azurerm_virtual_network.vnet (expand)&#45;&gt;[root] var.virtual_network_name -->
<g id="edge16" class="edge">
<title>[root] azurerm_virtual_network.vnet (expand)&#45;&gt;[root] var.virtual_network_name</title>
<path fill="none" stroke="black" d="M1859.81,-359.7C1862.73,-351.81 1866.27,-342.3 1869.52,-333.55"/>
<polygon fill="black" stroke="black" points="1872.83,-334.7 1873.03,-324.1 1866.26,-332.26 1872.83,-334.7"/>
</g>
<!-- [root] var.mongo_db_name -->
<g id="node20" class="node">
<title>[root] var.mongo_db_name</title>
<polygon fill="none" stroke="black" points="3120.88,-468 2965.88,-468 2965.88,-432 3126.88,-432 3126.88,-462 3120.88,-468"/>
<polyline fill="none" stroke="black" points="3120.88,-468 3120.88,-462"/>
<polyline fill="none" stroke="black" points="3126.88,-462 3120.88,-462"/>
<text text-anchor="middle" x="3046.38" y="-446.3" font-family="Times,serif" font-size="14.00">var.mongo_db_name</text>
</g>
<!-- [root] var.whitelisted_ip -->
<g id="node21" class="node">
<title>[root] var.whitelisted_ip</title>
<polygon fill="none" stroke="black" points="3291.88,-396 3154.88,-396 3154.88,-360 3297.88,-360 3297.88,-390 3291.88,-396"/>
<polyline fill="none" stroke="black" points="3291.88,-396 3291.88,-390"/>
<polyline fill="none" stroke="black" points="3297.88,-390 3291.88,-390"/>
<text text-anchor="middle" x="3226.38" y="-374.3" font-family="Times,serif" font-size="14.00">var.whitelisted_ip</text>
</g>
<!-- [root] output.container_registry_name (expand) -->
<g id="node22" class="node">
<title>[root] output.container_registry_name (expand)</title>
<ellipse fill="none" stroke="black" cx="231.38" cy="-450" rx="231.26" ry="18"/>
<text text-anchor="middle" x="231.38" y="-446.3" font-family="Times,serif" font-size="14.00">[root] output.container_registry_name (expand)</text>
</g>
<!-- [root] output.container_registry_name (expand)&#45;&gt;[root] azurerm_container_registry.acr (expand) -->
<g id="edge19" class="edge">
<title>[root] output.container_registry_name (expand)&#45;&gt;[root] azurerm_container_registry.acr (expand)</title>
<path fill="none" stroke="black" d="M372.95,-435.75C510.1,-422.92 716.34,-403.62 849.41,-391.16"/>
<polygon fill="black" stroke="black" points="850.03,-394.62 859.66,-390.2 849.38,-387.65 850.03,-394.62"/>
</g>
<!-- [root] output.cosmodb_account_name (expand) -->
<g id="node23" class="node">
<title>[root] output.cosmodb_account_name (expand)</title>
<ellipse fill="none" stroke="black" cx="708.38" cy="-450" rx="227.46" ry="18"/>
<text text-anchor="middle" x="708.38" y="-446.3" font-family="Times,serif" font-size="14.00">[root] output.cosmodb_account_name (expand)</text>
</g>
<!-- [root] output.cosmodb_account_name (expand)&#45;&gt;[root] azurerm_cosmosdb_account.db_account (expand) -->
<g id="edge20" class="edge">
<title>[root] output.cosmodb_account_name (expand)&#45;&gt;[root] azurerm_cosmosdb_account.db_account (expand)</title>
<path fill="none" stroke="black" d="M824.2,-434.5C910.44,-423.7 1028.78,-408.88 1121.48,-397.27"/>
<polygon fill="black" stroke="black" points="1122.02,-400.73 1131.51,-396.01 1121.15,-393.78 1122.02,-400.73"/>
</g>
<!-- [root] output.redis_name (expand) -->
<g id="node24" class="node">
<title>[root] output.redis_name (expand)</title>
<ellipse fill="none" stroke="black" cx="1768.38" cy="-450" rx="169.77" ry="18"/>
<text text-anchor="middle" x="1768.38" y="-446.3" font-family="Times,serif" font-size="14.00">[root] output.redis_name (expand)</text>
</g>
<!-- [root] output.redis_name (expand)&#45;&gt;[root] azurerm_redis_cache.redis (expand) -->
<g id="edge21" class="edge">
<title>[root] output.redis_name (expand)&#45;&gt;[root] azurerm_redis_cache.redis (expand)</title>
<path fill="none" stroke="black" d="M1731.41,-432.41C1709.95,-422.78 1682.7,-410.55 1659.68,-400.23"/>
<polygon fill="black" stroke="black" points="1661,-396.98 1650.44,-396.08 1658.13,-403.37 1661,-396.98"/>
</g>
<!-- [root] output.resource_group_name (expand) -->
<g id="node25" class="node">
<title>[root] output.resource_group_name (expand)</title>
<ellipse fill="none" stroke="black" cx="2457.38" cy="-378" rx="218.26" ry="18"/>
<text text-anchor="middle" x="2457.38" y="-374.3" font-family="Times,serif" font-size="14.00">[root] output.resource_group_name (expand)</text>
</g>
<!-- [root] output.resource_group_name (expand)&#45;&gt;[root] azurerm_resource_group.rg (expand) -->
<g id="edge22" class="edge">
<title>[root] output.resource_group_name (expand)&#45;&gt;[root] azurerm_resource_group.rg (expand)</title>
<path fill="none" stroke="black" d="M2365.56,-361.58C2331.74,-353.49 2294,-341.49 2262.38,-324 2241.74,-312.58 2244.86,-297.76 2223.38,-288 2158.85,-258.69 1973.14,-245.15 1849.25,-239.22"/>
<polygon fill="black" stroke="black" points="1849.11,-235.71 1838.96,-238.74 1848.78,-242.7 1849.11,-235.71"/>
</g>
<!-- [root] output.storage_account_name (expand) -->
<g id="node26" class="node">
<title>[root] output.storage_account_name (expand)</title>
<ellipse fill="none" stroke="black" cx="2915.38" cy="-378" rx="221.76" ry="18"/>
<text text-anchor="middle" x="2915.38" y="-374.3" font-family="Times,serif" font-size="14.00">[root] output.storage_account_name (expand)</text>
</g>
<!-- [root] output.storage_account_name (expand)&#45;&gt;[root] azurerm_storage_account.sa (expand) -->
<g id="edge23" class="edge">
<title>[root] output.storage_account_name (expand)&#45;&gt;[root] azurerm_storage_account.sa (expand)</title>
<path fill="none" stroke="black" d="M2804.09,-362.41C2715.7,-350.82 2592.32,-334.65 2501.67,-322.77"/>
<polygon fill="black" stroke="black" points="2501.98,-319.28 2491.61,-321.45 2501.07,-326.22 2501.98,-319.28"/>
</g>
<!-- [root] output.storage_container_name (expand) -->
<g id="node27" class="node">
<title>[root] output.storage_container_name (expand)</title>
<ellipse fill="none" stroke="black" cx="2642.38" cy="-450" rx="229.36" ry="18"/>
<text text-anchor="middle" x="2642.38" y="-446.3" font-family="Times,serif" font-size="14.00">[root] output.storage_container_name (expand)</text>
</g>
<!-- [root] output.storage_container_name (expand)&#45;&gt;[root] azurerm_storage_container.sc (expand) -->
<g id="edge24" class="edge">
<title>[root] output.storage_container_name (expand)&#45;&gt;[root] azurerm_storage_container.sc (expand)</title>
<path fill="none" stroke="black" d="M2526.91,-434.41C2446.88,-424.23 2337.55,-410.21 2231.78,-396.18"/>
<polygon fill="black" stroke="black" points="2231.93,-392.67 2221.55,-394.82 2231.01,-399.61 2231.93,-392.67"/>
</g>
<!-- [root] output.virtual_network_name (expand) -->
<g id="node28" class="node">
<title>[root] output.virtual_network_name (expand)</title>
<ellipse fill="none" stroke="black" cx="2175.38" cy="-450" rx="219.86" ry="18"/>
<text text-anchor="middle" x="2175.38" y="-446.3" font-family="Times,serif" font-size="14.00">[root] output.virtual_network_name (expand)</text>
</g>
<!-- [root] output.virtual_network_name (expand)&#45;&gt;[root] azurerm_virtual_network.vnet (expand) -->
<g id="edge25" class="edge">
<title>[root] output.virtual_network_name (expand)&#45;&gt;[root] azurerm_virtual_network.vnet (expand)</title>
<path fill="none" stroke="black" d="M2101.91,-433.03C2054.23,-422.66 1991.83,-409.1 1941.49,-398.15"/>
<polygon fill="black" stroke="black" points="1942.11,-394.71 1931.59,-396 1940.62,-401.55 1942.11,-394.71"/>
</g>
<!-- [root] provider[&quot;registry.terraform.io/hashicorp/azurerm&quot;] (close) -->
<g id="node29" class="node">
<title>[root] provider[&quot;registry.terraform.io/hashicorp/azurerm&quot;] (close)</title>
<ellipse fill="none" stroke="black" cx="1267.38" cy="-450" rx="313.04" ry="18"/>
<text text-anchor="middle" x="1267.38" y="-446.3" font-family="Times,serif" font-size="14.00">[root] provider[&quot;registry.terraform.io/hashicorp/azurerm&quot;] (close)</text>
</g>
<!-- [root] provider[&quot;registry.terraform.io/hashicorp/azurerm&quot;] (close)&#45;&gt;[root] azurerm_container_registry.acr (expand) -->
<g id="edge26" class="edge">
<title>[root] provider[&quot;registry.terraform.io/hashicorp/azurerm&quot;] (close)&#45;&gt;[root] azurerm_container_registry.acr (expand)</title>
<path fill="none" stroke="black" d="M1199.13,-432.41C1157.14,-422.21 1103.15,-409.08 1059.19,-398.4"/>
<polygon fill="black" stroke="black" points="1059.94,-394.98 1049.39,-396.02 1058.28,-401.78 1059.94,-394.98"/>
</g>
<!-- [root] provider[&quot;registry.terraform.io/hashicorp/azurerm&quot;] (close)&#45;&gt;[root] azurerm_cosmosdb_account.db_account (expand) -->
<g id="edge27" class="edge">
<title>[root] provider[&quot;registry.terraform.io/hashicorp/azurerm&quot;] (close)&#45;&gt;[root] azurerm_cosmosdb_account.db_account (expand)</title>
<path fill="none" stroke="black" d="M1267.38,-431.7C1267.38,-423.98 1267.38,-414.71 1267.38,-406.11"/>
<polygon fill="black" stroke="black" points="1270.88,-406.1 1267.38,-396.1 1263.88,-406.1 1270.88,-406.1"/>
</g>
<!-- [root] provider[&quot;registry.terraform.io/hashicorp/azurerm&quot;] (close)&#45;&gt;[root] azurerm_redis_cache.redis (expand) -->
<g id="edge28" class="edge">
<title>[root] provider[&quot;registry.terraform.io/hashicorp/azurerm&quot;] (close)&#45;&gt;[root] azurerm_redis_cache.redis (expand)</title>
<path fill="none" stroke="black" d="M1348.27,-432.59C1399.16,-422.26 1465.04,-408.9 1518.27,-398.09"/>
<polygon fill="black" stroke="black" points="1519.29,-401.46 1528.4,-396.04 1517.9,-394.6 1519.29,-401.46"/>
</g>
<!-- [root] provider[&quot;registry.terraform.io/hashicorp/azurerm&quot;] (close)&#45;&gt;[root] azurerm_storage_container.sc (expand) -->
<g id="edge29" class="edge">
<title>[root] provider[&quot;registry.terraform.io/hashicorp/azurerm&quot;] (close)&#45;&gt;[root] azurerm_storage_container.sc (expand)</title>
<path fill="none" stroke="black" d="M1476.49,-436.59C1618.29,-427.4 1809.86,-413.46 1978.38,-396 1979.31,-395.9 1980.24,-395.81 1981.17,-395.71"/>
<polygon fill="black" stroke="black" points="1981.72,-399.17 1991.28,-394.6 1980.96,-392.21 1981.72,-399.17"/>
</g>
<!-- [root] provider[&quot;registry.terraform.io/hashicorp/azurerm&quot;] (close)&#45;&gt;[root] azurerm_virtual_network.vnet (expand) -->
<g id="edge30" class="edge">
<title>[root] provider[&quot;registry.terraform.io/hashicorp/azurerm&quot;] (close)&#45;&gt;[root] azurerm_virtual_network.vnet (expand)</title>
<path fill="none" stroke="black" d="M1403.42,-433.78C1494.34,-423.48 1616.58,-409.35 1724.38,-396 1725.31,-395.88 1726.25,-395.77 1727.19,-395.65"/>
<polygon fill="black" stroke="black" points="1727.87,-399.09 1737.36,-394.38 1727,-392.15 1727.87,-399.09"/>
</g>
<!-- [root] root -->
<g id="node30" class="node">
<title>[root] root</title>
<ellipse fill="none" stroke="black" cx="2408.38" cy="-522" rx="58.49" ry="18"/>
<text text-anchor="middle" x="2408.38" y="-518.3" font-family="Times,serif" font-size="14.00">[root] root</text>
</g>
<!-- [root] root&#45;&gt;[root] var.mongo_db_name -->
<g id="edge31" class="edge">
<title>[root] root&#45;&gt;[root] var.mongo_db_name</title>
<path fill="none" stroke="black" d="M2464.84,-516.98C2563.71,-509.61 2774.51,-492.42 2951.38,-468 2952.86,-467.8 2954.35,-467.59 2955.85,-467.37"/>
<polygon fill="black" stroke="black" points="2956.49,-470.81 2965.86,-465.87 2955.45,-463.89 2956.49,-470.81"/>
</g>
<!-- [root] root&#45;&gt;[root] var.whitelisted_ip -->
<g id="edge32" class="edge">
<title>[root] root&#45;&gt;[root] var.whitelisted_ip</title>
<path fill="none" stroke="black" d="M2466.31,-519.09C2627.95,-513.42 3076.02,-495.41 3136.38,-468 3166.8,-454.19 3192.84,-425.38 3208.96,-404.27"/>
<polygon fill="black" stroke="black" points="3211.92,-406.16 3215.05,-396.04 3206.29,-402 3211.92,-406.16"/>
</g>
<!-- [root] root&#45;&gt;[root] output.container_registry_name (expand) -->
<g id="edge33" class="edge">
<title>[root] root&#45;&gt;[root] output.container_registry_name (expand)</title>
<path fill="none" stroke="black" d="M2350.14,-520.32C2115.07,-517.39 1213.32,-504.26 472.38,-468 448.91,-466.85 424.16,-465.39 399.83,-463.81"/>
<polygon fill="black" stroke="black" points="400.01,-460.32 389.8,-463.15 399.55,-467.3 400.01,-460.32"/>
</g>
<!-- [root] root&#45;&gt;[root] output.cosmodb_account_name (expand) -->
<g id="edge34" class="edge">
<title>[root] root&#45;&gt;[root] output.cosmodb_account_name (expand)</title>
<path fill="none" stroke="black" d="M2350.15,-519.63C2152.84,-514.83 1491.35,-497.46 945.38,-468 922.76,-466.78 898.95,-465.3 875.48,-463.73"/>
<polygon fill="black" stroke="black" points="875.67,-460.23 865.45,-463.05 875.19,-467.22 875.67,-460.23"/>
</g>
<!-- [root] root&#45;&gt;[root] output.redis_name (expand) -->
<g id="edge35" class="edge">
<title>[root] root&#45;&gt;[root] output.redis_name (expand)</title>
<path fill="none" stroke="black" d="M2354.09,-515.06C2252.58,-503.96 2031.69,-479.8 1892.06,-464.53"/>
<polygon fill="black" stroke="black" points="1892.06,-461.01 1881.74,-463.4 1891.3,-467.96 1892.06,-461.01"/>
</g>
<!-- [root] root&#45;&gt;[root] output.resource_group_name (expand) -->
<g id="edge36" class="edge">
<title>[root] root&#45;&gt;[root] output.resource_group_name (expand)</title>
<path fill="none" stroke="black" d="M2466.35,-518.74C2586.37,-513.46 2853.21,-498.39 2880.38,-468 2891.04,-456.07 2890.97,-444 2880.38,-432 2871.09,-421.48 2724.27,-404.81 2606.18,-392.98"/>
<polygon fill="black" stroke="black" points="2606.23,-389.47 2595.93,-391.96 2605.53,-396.44 2606.23,-389.47"/>
</g>
<!-- [root] root&#45;&gt;[root] output.storage_account_name (expand) -->
<g id="edge37" class="edge">
<title>[root] root&#45;&gt;[root] output.storage_account_name (expand)</title>
<path fill="none" stroke="black" d="M2466.25,-518.56C2589.05,-512.84 2867.12,-496.82 2898.38,-468 2915.04,-452.63 2918.33,-426.37 2918.03,-406.34"/>
<polygon fill="black" stroke="black" points="2921.52,-406.08 2917.57,-396.25 2914.53,-406.39 2921.52,-406.08"/>
</g>
<!-- [root] root&#45;&gt;[root] output.storage_container_name (expand) -->
<g id="edge38" class="edge">
<title>[root] root&#45;&gt;[root] output.storage_container_name (expand)</title>
<path fill="none" stroke="black" d="M2448.87,-508.89C2484.23,-498.31 2536.2,-482.76 2577.38,-470.45"/>
<polygon fill="black" stroke="black" points="2578.48,-473.77 2587.06,-467.55 2576.47,-467.06 2578.48,-473.77"/>
</g>
<!-- [root] root&#45;&gt;[root] output.virtual_network_name (expand) -->
<g id="edge39" class="edge">
<title>[root] root&#45;&gt;[root] output.virtual_network_name (expand)</title>
<path fill="none" stroke="black" d="M2368.06,-508.89C2332.85,-498.31 2281.11,-482.76 2240.11,-470.45"/>
<polygon fill="black" stroke="black" points="2241.05,-467.07 2230.47,-467.55 2239.04,-473.78 2241.05,-467.07"/>
</g>
<!-- [root] root&#45;&gt;[root] provider[&quot;registry.terraform.io/hashicorp/azurerm&quot;] (close) -->
<g id="edge40" class="edge">
<title>[root] root&#45;&gt;[root] provider[&quot;registry.terraform.io/hashicorp/azurerm&quot;] (close)</title>
<path fill="none" stroke="black" d="M2351.41,-517.5C2194.85,-507.9 1751.94,-480.73 1483.17,-464.24"/>
<polygon fill="black" stroke="black" points="1483.08,-460.73 1472.88,-463.61 1482.65,-467.71 1483.08,-460.73"/>
</g>
</g>
</svg>
