<?xml version="1.0" encoding="UTF-8" standalone="no"?>
<!DOCTYPE svg PUBLIC "-//W3C//DTD SVG 1.1//EN"
 "http://www.w3.org/Graphics/SVG/1.1/DTD/svg11.dtd">
<!-- Generated by graphviz version 5.0.1 (0)
 -->
<!-- Pages: 1 -->
<svg width="2620pt" height="404pt"
 viewBox="0.00 0.00 2619.50 404.00" xmlns="http://www.w3.org/2000/svg" xmlns:xlink="http://www.w3.org/1999/xlink">
<g id="graph0" class="graph" transform="scale(1 1) rotate(0) translate(4 400)">
<polygon fill="white" stroke="none" points="-4,4 -4,-400 2615.5,-400 2615.5,4 -4,4"/>
<!-- [root] azurerm_container_group.aci (expand) -->
<g id="node1" class="node">
<title>[root] azurerm_container_group.aci (expand)</title>
<polygon fill="none" stroke="black" points="1825,-252 1601,-252 1601,-216 1825,-216 1825,-252"/>
<text text-anchor="middle" x="1713" y="-230.3" font-family="Times,serif" font-size="14.00">azurerm_container_group.aci</text>
</g>
<!-- [root] data.azurerm_container_registry.acr (expand) -->
<g id="node2" class="node">
<title>[root] data.azurerm_container_registry.acr (expand)</title>
<polygon fill="none" stroke="black" points="1559.5,-180 1284.5,-180 1284.5,-144 1559.5,-144 1559.5,-180"/>
<text text-anchor="middle" x="1422" y="-158.3" font-family="Times,serif" font-size="14.00">data.azurerm_container_registry.acr</text>
</g>
<!-- [root] azurerm_container_group.aci (expand)&#45;&gt;[root] data.azurerm_container_registry.acr (expand) -->
<g id="edge1" class="edge">
<title>[root] azurerm_container_group.aci (expand)&#45;&gt;[root] data.azurerm_container_registry.acr (expand)</title>
<path fill="none" stroke="black" d="M1642.19,-215.97C1600.03,-205.83 1546.41,-192.93 1502.63,-182.4"/>
<polygon fill="black" stroke="black" points="1503.42,-178.99 1492.88,-180.05 1501.78,-185.79 1503.42,-178.99"/>
</g>
<!-- [root] data.azurerm_cosmosdb_account.db_account (expand) -->
<g id="node3" class="node">
<title>[root] data.azurerm_cosmosdb_account.db_account (expand)</title>
<polygon fill="none" stroke="black" points="730.5,-180 393.5,-180 393.5,-144 730.5,-144 730.5,-180"/>
<text text-anchor="middle" x="562" y="-158.3" font-family="Times,serif" font-size="14.00">data.azurerm_cosmosdb_account.db_account</text>
</g>
<!-- [root] azurerm_container_group.aci (expand)&#45;&gt;[root] data.azurerm_cosmosdb_account.db_account (expand) -->
<g id="edge2" class="edge">
<title>[root] azurerm_container_group.aci (expand)&#45;&gt;[root] data.azurerm_cosmosdb_account.db_account (expand)</title>
<path fill="none" stroke="black" d="M1600.79,-228.41C1421.39,-220.72 1058.68,-203.81 740.96,-180.13"/>
<polygon fill="black" stroke="black" points="740.86,-176.61 730.62,-179.36 740.33,-183.59 740.86,-176.61"/>
</g>
<!-- [root] data.azurerm_redis_cache.redis (expand) -->
<g id="node4" class="node">
<title>[root] data.azurerm_redis_cache.redis (expand)</title>
<polygon fill="none" stroke="black" points="991.5,-180 748.5,-180 748.5,-144 991.5,-144 991.5,-180"/>
<text text-anchor="middle" x="870" y="-158.3" font-family="Times,serif" font-size="14.00">data.azurerm_redis_cache.redis</text>
</g>
<!-- [root] azurerm_container_group.aci (expand)&#45;&gt;[root] data.azurerm_redis_cache.redis (expand) -->
<g id="edge3" class="edge">
<title>[root] azurerm_container_group.aci (expand)&#45;&gt;[root] data.azurerm_redis_cache.redis (expand)</title>
<path fill="none" stroke="black" d="M1600.92,-226.56C1462.64,-218.18 1220.12,-202.09 1001.71,-180.04"/>
<polygon fill="black" stroke="black" points="1001.96,-176.55 991.65,-179.02 1001.25,-183.51 1001.96,-176.55"/>
</g>
<!-- [root] data.azurerm_storage_account.sa (expand) -->
<g id="node5" class="node">
<title>[root] data.azurerm_storage_account.sa (expand)</title>
<polygon fill="none" stroke="black" points="1266,-180 1010,-180 1010,-144 1266,-144 1266,-180"/>
<text text-anchor="middle" x="1138" y="-158.3" font-family="Times,serif" font-size="14.00">data.azurerm_storage_account.sa</text>
</g>
<!-- [root] azurerm_container_group.aci (expand)&#45;&gt;[root] data.azurerm_storage_account.sa (expand) -->
<g id="edge4" class="edge">
<title>[root] azurerm_container_group.aci (expand)&#45;&gt;[root] data.azurerm_storage_account.sa (expand)</title>
<path fill="none" stroke="black" d="M1600.92,-219.53C1514.93,-209.18 1392.95,-194.44 1276.51,-180.18"/>
<polygon fill="black" stroke="black" points="1276.7,-176.68 1266.35,-178.94 1275.85,-183.63 1276.7,-176.68"/>
</g>
<!-- [root] var.backend_container_group_name -->
<g id="node8" class="node">
<title>[root] var.backend_container_group_name</title>
<polygon fill="none" stroke="black" points="1842.5,-180 1577.5,-180 1577.5,-144 1848.5,-144 1848.5,-174 1842.5,-180"/>
<polyline fill="none" stroke="black" points="1842.5,-180 1842.5,-174"/>
<polyline fill="none" stroke="black" points="1848.5,-174 1842.5,-174"/>
<text text-anchor="middle" x="1713" y="-158.3" font-family="Times,serif" font-size="14.00">var.backend_container_group_name</text>
</g>
<!-- [root] azurerm_container_group.aci (expand)&#45;&gt;[root] var.backend_container_group_name -->
<g id="edge5" class="edge">
<title>[root] azurerm_container_group.aci (expand)&#45;&gt;[root] var.backend_container_group_name</title>
<path fill="none" stroke="black" d="M1713,-215.7C1713,-207.98 1713,-198.71 1713,-190.11"/>
<polygon fill="black" stroke="black" points="1716.5,-190.1 1713,-180.1 1709.5,-190.1 1716.5,-190.1"/>
</g>
<!-- [root] var.backend_container_name -->
<g id="node9" class="node">
<title>[root] var.backend_container_name</title>
<polygon fill="none" stroke="black" points="2083,-180 1867,-180 1867,-144 2089,-144 2089,-174 2083,-180"/>
<polyline fill="none" stroke="black" points="2083,-180 2083,-174"/>
<polyline fill="none" stroke="black" points="2089,-174 2083,-174"/>
<text text-anchor="middle" x="1978" y="-158.3" font-family="Times,serif" font-size="14.00">var.backend_container_name</text>
</g>
<!-- [root] azurerm_container_group.aci (expand)&#45;&gt;[root] var.backend_container_name -->
<g id="edge6" class="edge">
<title>[root] azurerm_container_group.aci (expand)&#45;&gt;[root] var.backend_container_name</title>
<path fill="none" stroke="black" d="M1777.49,-215.97C1815.48,-205.93 1863.71,-193.19 1903.34,-182.72"/>
<polygon fill="black" stroke="black" points="1904.45,-186.05 1913.22,-180.11 1902.66,-179.28 1904.45,-186.05"/>
</g>
<!-- [root] var.backend_image -->
<g id="node10" class="node">
<title>[root] var.backend_image</title>
<polygon fill="none" stroke="black" points="2253,-180 2107,-180 2107,-144 2259,-144 2259,-174 2253,-180"/>
<polyline fill="none" stroke="black" points="2253,-180 2253,-174"/>
<polyline fill="none" stroke="black" points="2259,-174 2253,-174"/>
<text text-anchor="middle" x="2183" y="-158.3" font-family="Times,serif" font-size="14.00">var.backend_image</text>
</g>
<!-- [root] azurerm_container_group.aci (expand)&#45;&gt;[root] var.backend_image -->
<g id="edge7" class="edge">
<title>[root] azurerm_container_group.aci (expand)&#45;&gt;[root] var.backend_image</title>
<path fill="none" stroke="black" d="M1825.31,-219.36C1899.69,-209.9 1999.63,-196.36 2096.6,-180.19"/>
<polygon fill="black" stroke="black" points="2097.3,-183.62 2106.58,-178.51 2096.14,-176.71 2097.3,-183.62"/>
</g>
<!-- [root] var.location -->
<g id="node12" class="node">
<title>[root] var.location</title>
<polygon fill="none" stroke="black" points="2370.5,-180 2277.5,-180 2277.5,-144 2376.5,-144 2376.5,-174 2370.5,-180"/>
<polyline fill="none" stroke="black" points="2370.5,-180 2370.5,-174"/>
<polyline fill="none" stroke="black" points="2376.5,-174 2370.5,-174"/>
<text text-anchor="middle" x="2327" y="-158.3" font-family="Times,serif" font-size="14.00">var.location</text>
</g>
<!-- [root] azurerm_container_group.aci (expand)&#45;&gt;[root] var.location -->
<g id="edge8" class="edge">
<title>[root] azurerm_container_group.aci (expand)&#45;&gt;[root] var.location</title>
<path fill="none" stroke="black" d="M1825.21,-228.39C1935.62,-222.46 2108.93,-209.41 2267.33,-179.91"/>
<polygon fill="black" stroke="black" points="2268.09,-183.33 2277.26,-178.03 2266.79,-176.45 2268.09,-183.33"/>
</g>
<!-- [root] var.storage_container_name -->
<g id="node16" class="node">
<title>[root] var.storage_container_name</title>
<polygon fill="none" stroke="black" points="2605.5,-180 2394.5,-180 2394.5,-144 2611.5,-144 2611.5,-174 2605.5,-180"/>
<polyline fill="none" stroke="black" points="2605.5,-180 2605.5,-174"/>
<polyline fill="none" stroke="black" points="2611.5,-174 2605.5,-174"/>
<text text-anchor="middle" x="2503" y="-158.3" font-family="Times,serif" font-size="14.00">var.storage_container_name</text>
</g>
<!-- [root] azurerm_container_group.aci (expand)&#45;&gt;[root] var.storage_container_name -->
<g id="edge9" class="edge">
<title>[root] azurerm_container_group.aci (expand)&#45;&gt;[root] var.storage_container_name</title>
<path fill="none" stroke="black" d="M1825.15,-226.43C1956.69,-218.21 2181.54,-202.56 2384.11,-180.17"/>
<polygon fill="black" stroke="black" points="2384.8,-183.62 2394.35,-179.03 2384.03,-176.66 2384.8,-183.62"/>
</g>
<!-- [root] provider[&quot;registry.terraform.io/hashicorp/azurerm&quot;] -->
<g id="node6" class="node">
<title>[root] provider[&quot;registry.terraform.io/hashicorp/azurerm&quot;]</title>
<polygon fill="none" stroke="black" points="768,-108 413.41,-90 768,-72 1122.59,-90 768,-108"/>
<text text-anchor="middle" x="768" y="-86.3" font-family="Times,serif" font-size="14.00">provider[&quot;registry.terraform.io/hashicorp/azurerm&quot;]</text>
</g>
<!-- [root] data.azurerm_container_registry.acr (expand)&#45;&gt;[root] provider[&quot;registry.terraform.io/hashicorp/azurerm&quot;] -->
<g id="edge10" class="edge">
<title>[root] data.azurerm_container_registry.acr (expand)&#45;&gt;[root] provider[&quot;registry.terraform.io/hashicorp/azurerm&quot;]</title>
<path fill="none" stroke="black" d="M1284.29,-145.03C1281.16,-144.68 1278.06,-144.34 1275,-144 1143.47,-129.52 992.63,-113.87 889.9,-103.36"/>
<polygon fill="black" stroke="black" points="890.11,-99.87 879.81,-102.33 889.4,-106.83 890.11,-99.87"/>
</g>
<!-- [root] var.acr_name -->
<g id="node7" class="node">
<title>[root] var.acr_name</title>
<polygon fill="none" stroke="black" points="1687.5,-108 1582.5,-108 1582.5,-72 1693.5,-72 1693.5,-102 1687.5,-108"/>
<polyline fill="none" stroke="black" points="1687.5,-108 1687.5,-102"/>
<polyline fill="none" stroke="black" points="1693.5,-102 1687.5,-102"/>
<text text-anchor="middle" x="1638" y="-86.3" font-family="Times,serif" font-size="14.00">var.acr_name</text>
</g>
<!-- [root] data.azurerm_container_registry.acr (expand)&#45;&gt;[root] var.acr_name -->
<g id="edge11" class="edge">
<title>[root] data.azurerm_container_registry.acr (expand)&#45;&gt;[root] var.acr_name</title>
<path fill="none" stroke="black" d="M1474.56,-143.97C1505.01,-134.1 1543.51,-121.62 1575.5,-111.25"/>
<polygon fill="black" stroke="black" points="1576.77,-114.52 1585.2,-108.11 1574.61,-107.86 1576.77,-114.52"/>
</g>
<!-- [root] var.resource_group_name -->
<g id="node14" class="node">
<title>[root] var.resource_group_name</title>
<polygon fill="none" stroke="black" points="1335,-108 1141,-108 1141,-72 1341,-72 1341,-102 1335,-108"/>
<polyline fill="none" stroke="black" points="1335,-108 1335,-102"/>
<polyline fill="none" stroke="black" points="1341,-102 1335,-102"/>
<text text-anchor="middle" x="1241" y="-86.3" font-family="Times,serif" font-size="14.00">var.resource_group_name</text>
</g>
<!-- [root] data.azurerm_container_registry.acr (expand)&#45;&gt;[root] var.resource_group_name -->
<g id="edge12" class="edge">
<title>[root] data.azurerm_container_registry.acr (expand)&#45;&gt;[root] var.resource_group_name</title>
<path fill="none" stroke="black" d="M1377.72,-143.88C1352.65,-134.18 1321.1,-121.98 1294.63,-111.74"/>
<polygon fill="black" stroke="black" points="1295.72,-108.41 1285.13,-108.07 1293.2,-114.94 1295.72,-108.41"/>
</g>
<!-- [root] data.azurerm_cosmosdb_account.db_account (expand)&#45;&gt;[root] provider[&quot;registry.terraform.io/hashicorp/azurerm&quot;] -->
<g id="edge13" class="edge">
<title>[root] data.azurerm_cosmosdb_account.db_account (expand)&#45;&gt;[root] provider[&quot;registry.terraform.io/hashicorp/azurerm&quot;]</title>
<path fill="none" stroke="black" d="M612.13,-143.97C643.21,-133.4 683.11,-119.85 714.76,-109.09"/>
<polygon fill="black" stroke="black" points="715.95,-112.38 724.3,-105.85 713.7,-105.75 715.95,-112.38"/>
</g>
<!-- [root] var.cosmos_db_account_name -->
<g id="node11" class="node">
<title>[root] var.cosmos_db_account_name</title>
<polygon fill="none" stroke="black" points="222,-108 0,-108 0,-72 228,-72 228,-102 222,-108"/>
<polyline fill="none" stroke="black" points="222,-108 222,-102"/>
<polyline fill="none" stroke="black" points="228,-102 222,-102"/>
<text text-anchor="middle" x="114" y="-86.3" font-family="Times,serif" font-size="14.00">var.cosmos_db_account_name</text>
</g>
<!-- [root] data.azurerm_cosmosdb_account.db_account (expand)&#45;&gt;[root] var.cosmos_db_account_name -->
<g id="edge14" class="edge">
<title>[root] data.azurerm_cosmosdb_account.db_account (expand)&#45;&gt;[root] var.cosmos_db_account_name</title>
<path fill="none" stroke="black" d="M452.98,-143.97C386.45,-133.57 301.36,-120.27 233.07,-109.6"/>
<polygon fill="black" stroke="black" points="233.54,-106.14 223.12,-108.05 232.46,-113.05 233.54,-106.14"/>
</g>
<!-- [root] data.azurerm_cosmosdb_account.db_account (expand)&#45;&gt;[root] var.resource_group_name -->
<g id="edge15" class="edge">
<title>[root] data.azurerm_cosmosdb_account.db_account (expand)&#45;&gt;[root] var.resource_group_name</title>
<path fill="none" stroke="black" d="M730.63,-144.79C733.44,-144.52 736.23,-144.26 739,-144 910.39,-127.92 956.24,-129.46 1130.9,-108.09"/>
<polygon fill="black" stroke="black" points="1131.45,-111.55 1140.95,-106.86 1130.6,-104.6 1131.45,-111.55"/>
</g>
<!-- [root] data.azurerm_redis_cache.redis (expand)&#45;&gt;[root] provider[&quot;registry.terraform.io/hashicorp/azurerm&quot;] -->
<g id="edge16" class="edge">
<title>[root] data.azurerm_redis_cache.redis (expand)&#45;&gt;[root] provider[&quot;registry.terraform.io/hashicorp/azurerm&quot;]</title>
<path fill="none" stroke="black" d="M845.05,-143.88C831.34,-134.47 814.2,-122.71 799.58,-112.67"/>
<polygon fill="black" stroke="black" points="801.52,-109.76 791.3,-106.99 797.56,-115.53 801.52,-109.76"/>
</g>
<!-- [root] var.redis_db_name -->
<g id="node13" class="node">
<title>[root] var.redis_db_name</title>
<polygon fill="none" stroke="black" points="389.5,-108 246.5,-108 246.5,-72 395.5,-72 395.5,-102 389.5,-108"/>
<polyline fill="none" stroke="black" points="389.5,-108 389.5,-102"/>
<polyline fill="none" stroke="black" points="395.5,-102 389.5,-102"/>
<text text-anchor="middle" x="321" y="-86.3" font-family="Times,serif" font-size="14.00">var.redis_db_name</text>
</g>
<!-- [root] data.azurerm_redis_cache.redis (expand)&#45;&gt;[root] var.redis_db_name -->
<g id="edge17" class="edge">
<title>[root] data.azurerm_redis_cache.redis (expand)&#45;&gt;[root] var.redis_db_name</title>
<path fill="none" stroke="black" d="M748.33,-145.12C745.19,-144.74 742.07,-144.36 739,-144 593.49,-126.74 553.66,-130.86 405.51,-108.16"/>
<polygon fill="black" stroke="black" points="406.01,-104.7 395.6,-106.63 404.94,-111.61 406.01,-104.7"/>
</g>
<!-- [root] data.azurerm_redis_cache.redis (expand)&#45;&gt;[root] var.resource_group_name -->
<g id="edge18" class="edge">
<title>[root] data.azurerm_redis_cache.redis (expand)&#45;&gt;[root] var.resource_group_name</title>
<path fill="none" stroke="black" d="M960.28,-143.97C1014.81,-133.68 1084.4,-120.55 1140.65,-109.93"/>
<polygon fill="black" stroke="black" points="1141.46,-113.34 1150.63,-108.05 1140.16,-106.46 1141.46,-113.34"/>
</g>
<!-- [root] data.azurerm_storage_account.sa (expand)&#45;&gt;[root] provider[&quot;registry.terraform.io/hashicorp/azurerm&quot;] -->
<g id="edge19" class="edge">
<title>[root] data.azurerm_storage_account.sa (expand)&#45;&gt;[root] provider[&quot;registry.terraform.io/hashicorp/azurerm&quot;]</title>
<path fill="none" stroke="black" d="M1047.96,-143.97C987.2,-132.47 907.68,-117.43 848.92,-106.31"/>
<polygon fill="black" stroke="black" points="849.42,-102.84 838.94,-104.42 848.12,-109.72 849.42,-102.84"/>
</g>
<!-- [root] data.azurerm_storage_account.sa (expand)&#45;&gt;[root] var.resource_group_name -->
<g id="edge20" class="edge">
<title>[root] data.azurerm_storage_account.sa (expand)&#45;&gt;[root] var.resource_group_name</title>
<path fill="none" stroke="black" d="M1163.2,-143.88C1176.41,-134.89 1192.79,-123.76 1207.11,-114.03"/>
<polygon fill="black" stroke="black" points="1209.4,-116.71 1215.71,-108.19 1205.47,-110.92 1209.4,-116.71"/>
</g>
<!-- [root] var.storage_account_name -->
<g id="node15" class="node">
<title>[root] var.storage_account_name</title>
<polygon fill="none" stroke="black" points="1558.5,-108 1359.5,-108 1359.5,-72 1564.5,-72 1564.5,-102 1558.5,-108"/>
<polyline fill="none" stroke="black" points="1558.5,-108 1558.5,-102"/>
<polyline fill="none" stroke="black" points="1564.5,-102 1558.5,-102"/>
<text text-anchor="middle" x="1462" y="-86.3" font-family="Times,serif" font-size="14.00">var.storage_account_name</text>
</g>
<!-- [root] data.azurerm_storage_account.sa (expand)&#45;&gt;[root] var.storage_account_name -->
<g id="edge21" class="edge">
<title>[root] data.azurerm_storage_account.sa (expand)&#45;&gt;[root] var.storage_account_name</title>
<path fill="none" stroke="black" d="M1216.85,-143.97C1264.07,-133.76 1324.24,-120.76 1373.14,-110.2"/>
<polygon fill="black" stroke="black" points="1374.05,-113.58 1383.08,-108.05 1372.57,-106.74 1374.05,-113.58"/>
</g>
<!-- [root] var.subscription_id -->
<g id="node17" class="node">
<title>[root] var.subscription_id</title>
<polygon fill="none" stroke="black" points="763,-36 617,-36 617,0 769,0 769,-30 763,-36"/>
<polyline fill="none" stroke="black" points="763,-36 763,-30"/>
<polyline fill="none" stroke="black" points="769,-30 763,-30"/>
<text text-anchor="middle" x="693" y="-14.3" font-family="Times,serif" font-size="14.00">var.subscription_id</text>
</g>
<!-- [root] provider[&quot;registry.terraform.io/hashicorp/azurerm&quot;]&#45;&gt;[root] var.subscription_id -->
<g id="edge24" class="edge">
<title>[root] provider[&quot;registry.terraform.io/hashicorp/azurerm&quot;]&#45;&gt;[root] var.subscription_id</title>
<path fill="none" stroke="black" d="M750.6,-72.76C741.13,-63.92 729.23,-52.82 718.71,-43"/>
<polygon fill="black" stroke="black" points="721.05,-40.39 711.35,-36.12 716.27,-45.51 721.05,-40.39"/>
</g>
<!-- [root] var.tenant_id -->
<g id="node18" class="node">
<title>[root] var.tenant_id</title>
<polygon fill="none" stroke="black" points="891,-36 787,-36 787,0 897,0 897,-30 891,-36"/>
<polyline fill="none" stroke="black" points="891,-36 891,-30"/>
<polyline fill="none" stroke="black" points="897,-30 891,-30"/>
<text text-anchor="middle" x="842" y="-14.3" font-family="Times,serif" font-size="14.00">var.tenant_id</text>
</g>
<!-- [root] provider[&quot;registry.terraform.io/hashicorp/azurerm&quot;]&#45;&gt;[root] var.tenant_id -->
<g id="edge25" class="edge">
<title>[root] provider[&quot;registry.terraform.io/hashicorp/azurerm&quot;]&#45;&gt;[root] var.tenant_id</title>
<path fill="none" stroke="black" d="M785.16,-72.76C794.51,-63.92 806.25,-52.82 816.63,-43"/>
<polygon fill="black" stroke="black" points="819.04,-45.54 823.9,-36.12 814.23,-40.45 819.04,-45.54"/>
</g>
<!-- [root] output.backend_container_group_name (expand) -->
<g id="node19" class="node">
<title>[root] output.backend_container_group_name (expand)</title>
<ellipse fill="none" stroke="black" cx="1415" cy="-306" rx="264.55" ry="18"/>
<text text-anchor="middle" x="1415" y="-302.3" font-family="Times,serif" font-size="14.00">[root] output.backend_container_group_name (expand)</text>
</g>
<!-- [root] output.backend_container_group_name (expand)&#45;&gt;[root] azurerm_container_group.aci (expand) -->
<g id="edge22" class="edge">
<title>[root] output.backend_container_group_name (expand)&#45;&gt;[root] azurerm_container_group.aci (expand)</title>
<path fill="none" stroke="black" d="M1484.87,-288.59C1528.46,-278.35 1584.79,-265.12 1630.56,-254.36"/>
<polygon fill="black" stroke="black" points="1631.52,-257.73 1640.46,-252.04 1629.92,-250.92 1631.52,-257.73"/>
</g>
<!-- [root] provider[&quot;registry.terraform.io/hashicorp/azurerm&quot;] (close) -->
<g id="node20" class="node">
<title>[root] provider[&quot;registry.terraform.io/hashicorp/azurerm&quot;] (close)</title>
<ellipse fill="none" stroke="black" cx="2011" cy="-306" rx="313.04" ry="18"/>
<text text-anchor="middle" x="2011" y="-302.3" font-family="Times,serif" font-size="14.00">[root] provider[&quot;registry.terraform.io/hashicorp/azurerm&quot;] (close)</text>
</g>
<!-- [root] provider[&quot;registry.terraform.io/hashicorp/azurerm&quot;] (close)&#45;&gt;[root] azurerm_container_group.aci (expand) -->
<g id="edge23" class="edge">
<title>[root] provider[&quot;registry.terraform.io/hashicorp/azurerm&quot;] (close)&#45;&gt;[root] azurerm_container_group.aci (expand)</title>
<path fill="none" stroke="black" d="M1940.38,-288.41C1896.84,-278.18 1840.83,-265.03 1795.29,-254.33"/>
<polygon fill="black" stroke="black" points="1795.98,-250.9 1785.45,-252.02 1794.38,-257.71 1795.98,-250.9"/>
</g>
<!-- [root] root -->
<g id="node21" class="node">
<title>[root] root</title>
<ellipse fill="none" stroke="black" cx="1713" cy="-378" rx="58.49" ry="18"/>
<text text-anchor="middle" x="1713" y="-374.3" font-family="Times,serif" font-size="14.00">[root] root</text>
</g>
<!-- [root] root&#45;&gt;[root] output.backend_container_group_name (expand) -->
<g id="edge26" class="edge">
<title>[root] root&#45;&gt;[root] output.backend_container_group_name (expand)</title>
<path fill="none" stroke="black" d="M1668.06,-366.44C1622.2,-355.67 1550.07,-338.73 1494.53,-325.68"/>
<polygon fill="black" stroke="black" points="1495.25,-322.25 1484.71,-323.37 1493.64,-329.07 1495.25,-322.25"/>
</g>
<!-- [root] root&#45;&gt;[root] provider[&quot;registry.terraform.io/hashicorp/azurerm&quot;] (close) -->
<g id="edge27" class="edge">
<title>[root] root&#45;&gt;[root] provider[&quot;registry.terraform.io/hashicorp/azurerm&quot;] (close)</title>
<path fill="none" stroke="black" d="M1757.94,-366.44C1803.57,-355.73 1875.21,-338.9 1930.64,-325.88"/>
<polygon fill="black" stroke="black" points="1931.5,-329.27 1940.44,-323.58 1929.9,-322.45 1931.5,-329.27"/>
</g>
</g>
</svg>
