<?xml version="1.0" encoding="UTF-8" standalone="no"?>
<!DOCTYPE svg PUBLIC "-//W3C//DTD SVG 1.1//EN"
 "http://www.w3.org/Graphics/SVG/1.1/DTD/svg11.dtd">
<!-- Generated by graphviz version 5.0.1 (0)
 -->
<!-- Pages: 1 -->
<svg width="2649pt" height="404pt"
 viewBox="0.00 0.00 2648.50 404.00" xmlns="http://www.w3.org/2000/svg" xmlns:xlink="http://www.w3.org/1999/xlink">
<g id="graph0" class="graph" transform="scale(1 1) rotate(0) translate(4 400)">
<polygon fill="white" stroke="none" points="-4,4 -4,-400 2644.5,-400 2644.5,4 -4,4"/>
<!-- [root] azurerm_container_group.aci (expand) -->
<g id="node1" class="node">
<title>[root] azurerm_container_group.aci (expand)</title>
<polygon fill="none" stroke="black" points="1458,-252 1234,-252 1234,-216 1458,-216 1458,-252"/>
<text text-anchor="middle" x="1346" y="-230.3" font-family="Times,serif" font-size="14.00">azurerm_container_group.aci</text>
</g>
<!-- [root] data.azurerm_container_group.aci_back (expand) -->
<g id="node2" class="node">
<title>[root] data.azurerm_container_group.aci_back (expand)</title>
<polygon fill="none" stroke="black" points="1058,-180 758,-180 758,-144 1058,-144 1058,-180"/>
<text text-anchor="middle" x="908" y="-158.3" font-family="Times,serif" font-size="14.00">data.azurerm_container_group.aci_back</text>
</g>
<!-- [root] azurerm_container_group.aci (expand)&#45;&gt;[root] data.azurerm_container_group.aci_back (expand) -->
<g id="edge1" class="edge">
<title>[root] azurerm_container_group.aci (expand)&#45;&gt;[root] data.azurerm_container_group.aci_back (expand)</title>
<path fill="none" stroke="black" d="M1239.41,-215.97C1174.5,-205.59 1091.51,-192.33 1024.82,-181.67"/>
<polygon fill="black" stroke="black" points="1025.11,-178.17 1014.68,-180.05 1024.01,-185.08 1025.11,-178.17"/>
</g>
<!-- [root] data.azurerm_container_registry.acr (expand) -->
<g id="node3" class="node">
<title>[root] data.azurerm_container_registry.acr (expand)</title>
<polygon fill="none" stroke="black" points="697.5,-180 422.5,-180 422.5,-144 697.5,-144 697.5,-180"/>
<text text-anchor="middle" x="560" y="-158.3" font-family="Times,serif" font-size="14.00">data.azurerm_container_registry.acr</text>
</g>
<!-- [root] azurerm_container_group.aci (expand)&#45;&gt;[root] data.azurerm_container_registry.acr (expand) -->
<g id="edge2" class="edge">
<title>[root] azurerm_container_group.aci (expand)&#45;&gt;[root] data.azurerm_container_registry.acr (expand)</title>
<path fill="none" stroke="black" d="M1233.76,-223.08C1113.77,-212.46 917.93,-195.1 749,-180 735.6,-178.8 721.66,-177.55 707.71,-176.3"/>
<polygon fill="black" stroke="black" points="707.82,-172.8 697.55,-175.39 707.19,-179.77 707.82,-172.8"/>
</g>
<!-- [root] var.frontend_container_group_name -->
<g id="node11" class="node">
<title>[root] var.frontend_container_group_name</title>
<polygon fill="none" stroke="black" points="1343.5,-180 1076.5,-180 1076.5,-144 1349.5,-144 1349.5,-174 1343.5,-180"/>
<polyline fill="none" stroke="black" points="1343.5,-180 1343.5,-174"/>
<polyline fill="none" stroke="black" points="1349.5,-174 1343.5,-174"/>
<text text-anchor="middle" x="1213" y="-158.3" font-family="Times,serif" font-size="14.00">var.frontend_container_group_name</text>
</g>
<!-- [root] azurerm_container_group.aci (expand)&#45;&gt;[root] var.frontend_container_group_name -->
<g id="edge3" class="edge">
<title>[root] azurerm_container_group.aci (expand)&#45;&gt;[root] var.frontend_container_group_name</title>
<path fill="none" stroke="black" d="M1313.46,-215.88C1295.75,-206.55 1273.65,-194.92 1254.68,-184.94"/>
<polygon fill="black" stroke="black" points="1256.14,-181.75 1245.66,-180.19 1252.88,-187.94 1256.14,-181.75"/>
</g>
<!-- [root] var.frontend_container_name -->
<g id="node12" class="node">
<title>[root] var.frontend_container_name</title>
<polygon fill="none" stroke="black" points="1586,-180 1368,-180 1368,-144 1592,-144 1592,-174 1586,-180"/>
<polyline fill="none" stroke="black" points="1586,-180 1586,-174"/>
<polyline fill="none" stroke="black" points="1592,-174 1586,-174"/>
<text text-anchor="middle" x="1480" y="-158.3" font-family="Times,serif" font-size="14.00">var.frontend_container_name</text>
</g>
<!-- [root] azurerm_container_group.aci (expand)&#45;&gt;[root] var.frontend_container_name -->
<g id="edge4" class="edge">
<title>[root] azurerm_container_group.aci (expand)&#45;&gt;[root] var.frontend_container_name</title>
<path fill="none" stroke="black" d="M1378.78,-215.88C1396.63,-206.55 1418.9,-194.92 1438,-184.94"/>
<polygon fill="black" stroke="black" points="1439.85,-187.92 1447.09,-180.19 1436.61,-181.72 1439.85,-187.92"/>
</g>
<!-- [root] var.frontend_image -->
<g id="node13" class="node">
<title>[root] var.frontend_image</title>
<polygon fill="none" stroke="black" points="1759.5,-180 1610.5,-180 1610.5,-144 1765.5,-144 1765.5,-174 1759.5,-180"/>
<polyline fill="none" stroke="black" points="1759.5,-180 1759.5,-174"/>
<polyline fill="none" stroke="black" points="1765.5,-174 1759.5,-174"/>
<text text-anchor="middle" x="1688" y="-158.3" font-family="Times,serif" font-size="14.00">var.frontend_image</text>
</g>
<!-- [root] azurerm_container_group.aci (expand)&#45;&gt;[root] var.frontend_image -->
<g id="edge5" class="edge">
<title>[root] azurerm_container_group.aci (expand)&#45;&gt;[root] var.frontend_image</title>
<path fill="none" stroke="black" d="M1429.23,-215.97C1481.05,-205.36 1547.63,-191.73 1600.28,-180.95"/>
<polygon fill="black" stroke="black" points="1601.18,-184.34 1610.28,-178.91 1599.78,-177.48 1601.18,-184.34"/>
</g>
<!-- [root] var.location -->
<g id="node14" class="node">
<title>[root] var.location</title>
<polygon fill="none" stroke="black" points="1876.5,-180 1783.5,-180 1783.5,-144 1882.5,-144 1882.5,-174 1876.5,-180"/>
<polyline fill="none" stroke="black" points="1876.5,-180 1876.5,-174"/>
<polyline fill="none" stroke="black" points="1882.5,-174 1876.5,-174"/>
<text text-anchor="middle" x="1833" y="-158.3" font-family="Times,serif" font-size="14.00">var.location</text>
</g>
<!-- [root] azurerm_container_group.aci (expand)&#45;&gt;[root] var.location -->
<g id="edge6" class="edge">
<title>[root] azurerm_container_group.aci (expand)&#45;&gt;[root] var.location</title>
<path fill="none" stroke="black" d="M1458.37,-224.14C1542.84,-216.31 1661.43,-202.83 1773.35,-180.17"/>
<polygon fill="black" stroke="black" points="1774.37,-183.53 1783.46,-178.09 1772.96,-176.68 1774.37,-183.53"/>
</g>
<!-- [root] provider[&quot;registry.terraform.io/hashicorp/azurerm&quot;] -->
<g id="node4" class="node">
<title>[root] provider[&quot;registry.terraform.io/hashicorp/azurerm&quot;]</title>
<polygon fill="none" stroke="black" points="477,-108 122.41,-90 477,-72 831.59,-90 477,-108"/>
<text text-anchor="middle" x="477" y="-86.3" font-family="Times,serif" font-size="14.00">provider[&quot;registry.terraform.io/hashicorp/azurerm&quot;]</text>
</g>
<!-- [root] data.azurerm_container_group.aci_back (expand)&#45;&gt;[root] provider[&quot;registry.terraform.io/hashicorp/azurerm&quot;] -->
<g id="edge7" class="edge">
<title>[root] data.azurerm_container_group.aci_back (expand)&#45;&gt;[root] provider[&quot;registry.terraform.io/hashicorp/azurerm&quot;]</title>
<path fill="none" stroke="black" d="M803.12,-143.97C730.8,-132.22 635.68,-116.77 566.85,-105.59"/>
<polygon fill="black" stroke="black" points="567.32,-102.12 556.89,-103.98 566.2,-109.03 567.32,-102.12"/>
</g>
<!-- [root] var.backend_container_group_name -->
<g id="node9" class="node">
<title>[root] var.backend_container_group_name</title>
<polygon fill="none" stroke="black" points="1333.5,-108 1068.5,-108 1068.5,-72 1339.5,-72 1339.5,-102 1333.5,-108"/>
<polyline fill="none" stroke="black" points="1333.5,-108 1333.5,-102"/>
<polyline fill="none" stroke="black" points="1339.5,-102 1333.5,-102"/>
<text text-anchor="middle" x="1204" y="-86.3" font-family="Times,serif" font-size="14.00">var.backend_container_group_name</text>
</g>
<!-- [root] data.azurerm_container_group.aci_back (expand)&#45;&gt;[root] var.backend_container_group_name -->
<g id="edge8" class="edge">
<title>[root] data.azurerm_container_group.aci_back (expand)&#45;&gt;[root] var.backend_container_group_name</title>
<path fill="none" stroke="black" d="M980.03,-143.97C1022.91,-133.83 1077.45,-120.93 1121.98,-110.4"/>
<polygon fill="black" stroke="black" points="1122.98,-113.76 1131.9,-108.05 1121.37,-106.95 1122.98,-113.76"/>
</g>
<!-- [root] var.resource_group_name -->
<g id="node15" class="node">
<title>[root] var.resource_group_name</title>
<polygon fill="none" stroke="black" points="1044,-108 850,-108 850,-72 1050,-72 1050,-102 1044,-108"/>
<polyline fill="none" stroke="black" points="1044,-108 1044,-102"/>
<polyline fill="none" stroke="black" points="1050,-102 1044,-102"/>
<text text-anchor="middle" x="950" y="-86.3" font-family="Times,serif" font-size="14.00">var.resource_group_name</text>
</g>
<!-- [root] data.azurerm_container_group.aci_back (expand)&#45;&gt;[root] var.resource_group_name -->
<g id="edge9" class="edge">
<title>[root] data.azurerm_container_group.aci_back (expand)&#45;&gt;[root] var.resource_group_name</title>
<path fill="none" stroke="black" d="M918.38,-143.7C923.26,-135.56 929.19,-125.69 934.58,-116.7"/>
<polygon fill="black" stroke="black" points="937.59,-118.48 939.74,-108.1 931.59,-114.88 937.59,-118.48"/>
</g>
<!-- [root] data.azurerm_container_registry.acr (expand)&#45;&gt;[root] provider[&quot;registry.terraform.io/hashicorp/azurerm&quot;] -->
<g id="edge10" class="edge">
<title>[root] data.azurerm_container_registry.acr (expand)&#45;&gt;[root] provider[&quot;registry.terraform.io/hashicorp/azurerm&quot;]</title>
<path fill="none" stroke="black" d="M539.48,-143.7C528.72,-134.62 515.4,-123.38 503.82,-113.62"/>
<polygon fill="black" stroke="black" points="506.04,-110.92 496.14,-107.14 501.53,-116.27 506.04,-110.92"/>
</g>
<!-- [root] var.acr_user -->
<g id="node7" class="node">
<title>[root] var.acr_user</title>
<polygon fill="none" stroke="black" points="98,-108 0,-108 0,-72 104,-72 104,-102 98,-108"/>
<polyline fill="none" stroke="black" points="98,-108 98,-102"/>
<polyline fill="none" stroke="black" points="104,-102 98,-102"/>
<text text-anchor="middle" x="52" y="-86.3" font-family="Times,serif" font-size="14.00">var.acr_user</text>
</g>
<!-- [root] data.azurerm_container_registry.acr (expand)&#45;&gt;[root] var.acr_user -->
<g id="edge11" class="edge">
<title>[root] data.azurerm_container_registry.acr (expand)&#45;&gt;[root] var.acr_user</title>
<path fill="none" stroke="black" d="M422.2,-150.18C335.99,-142.1 222.6,-129.07 113.94,-108.02"/>
<polygon fill="black" stroke="black" points="114.6,-104.58 104.12,-106.09 113.26,-111.45 114.6,-104.58"/>
</g>
<!-- [root] data.azurerm_container_registry.acr (expand)&#45;&gt;[root] var.resource_group_name -->
<g id="edge12" class="edge">
<title>[root] data.azurerm_container_registry.acr (expand)&#45;&gt;[root] var.resource_group_name</title>
<path fill="none" stroke="black" d="M654.91,-143.97C712.35,-133.66 785.69,-120.49 844.88,-109.87"/>
<polygon fill="black" stroke="black" points="845.78,-113.26 855.01,-108.05 844.55,-106.37 845.78,-113.26"/>
</g>
<!-- [root] var.subscription_id -->
<g id="node16" class="node">
<title>[root] var.subscription_id</title>
<polygon fill="none" stroke="black" points="473,-36 327,-36 327,0 479,0 479,-30 473,-36"/>
<polyline fill="none" stroke="black" points="473,-36 473,-30"/>
<polyline fill="none" stroke="black" points="479,-30 473,-30"/>
<text text-anchor="middle" x="403" y="-14.3" font-family="Times,serif" font-size="14.00">var.subscription_id</text>
</g>
<!-- [root] provider[&quot;registry.terraform.io/hashicorp/azurerm&quot;]&#45;&gt;[root] var.subscription_id -->
<g id="edge15" class="edge">
<title>[root] provider[&quot;registry.terraform.io/hashicorp/azurerm&quot;]&#45;&gt;[root] var.subscription_id</title>
<path fill="none" stroke="black" d="M459.84,-72.76C450.49,-63.92 438.75,-52.82 428.37,-43"/>
<polygon fill="black" stroke="black" points="430.77,-40.45 421.1,-36.12 425.96,-45.54 430.77,-40.45"/>
</g>
<!-- [root] var.tenant_id -->
<g id="node17" class="node">
<title>[root] var.tenant_id</title>
<polygon fill="none" stroke="black" points="601,-36 497,-36 497,0 607,0 607,-30 601,-36"/>
<polyline fill="none" stroke="black" points="601,-36 601,-30"/>
<polyline fill="none" stroke="black" points="607,-30 601,-30"/>
<text text-anchor="middle" x="552" y="-14.3" font-family="Times,serif" font-size="14.00">var.tenant_id</text>
</g>
<!-- [root] provider[&quot;registry.terraform.io/hashicorp/azurerm&quot;]&#45;&gt;[root] var.tenant_id -->
<g id="edge16" class="edge">
<title>[root] provider[&quot;registry.terraform.io/hashicorp/azurerm&quot;]&#45;&gt;[root] var.tenant_id</title>
<path fill="none" stroke="black" d="M494.4,-72.76C503.87,-63.92 515.77,-52.82 526.29,-43"/>
<polygon fill="black" stroke="black" points="528.73,-45.51 533.65,-36.12 523.95,-40.39 528.73,-45.51"/>
</g>
<!-- [root] var.acr_password -->
<g id="node5" class="node">
<title>[root] var.acr_password</title>
<polygon fill="none" stroke="black" points="2110,-324 1976,-324 1976,-288 2116,-288 2116,-318 2110,-324"/>
<polyline fill="none" stroke="black" points="2110,-324 2110,-318"/>
<polyline fill="none" stroke="black" points="2116,-318 2110,-318"/>
<text text-anchor="middle" x="2046" y="-302.3" font-family="Times,serif" font-size="14.00">var.acr_password</text>
</g>
<!-- [root] var.acr_server -->
<g id="node6" class="node">
<title>[root] var.acr_server</title>
<polygon fill="none" stroke="black" points="2246,-324 2134,-324 2134,-288 2252,-288 2252,-318 2246,-324"/>
<polyline fill="none" stroke="black" points="2246,-324 2246,-318"/>
<polyline fill="none" stroke="black" points="2252,-318 2246,-318"/>
<text text-anchor="middle" x="2193" y="-302.3" font-family="Times,serif" font-size="14.00">var.acr_server</text>
</g>
<!-- [root] var.backend_address -->
<g id="node8" class="node">
<title>[root] var.backend_address</title>
<polygon fill="none" stroke="black" points="2429.5,-324 2270.5,-324 2270.5,-288 2435.5,-288 2435.5,-318 2429.5,-324"/>
<polyline fill="none" stroke="black" points="2429.5,-324 2429.5,-318"/>
<polyline fill="none" stroke="black" points="2435.5,-318 2429.5,-318"/>
<text text-anchor="middle" x="2353" y="-302.3" font-family="Times,serif" font-size="14.00">var.backend_address</text>
</g>
<!-- [root] var.cors_origin_to_allow -->
<g id="node10" class="node">
<title>[root] var.cors_origin_to_allow</title>
<polygon fill="none" stroke="black" points="2634.5,-324 2453.5,-324 2453.5,-288 2640.5,-288 2640.5,-318 2634.5,-324"/>
<polyline fill="none" stroke="black" points="2634.5,-324 2634.5,-318"/>
<polyline fill="none" stroke="black" points="2640.5,-318 2634.5,-318"/>
<text text-anchor="middle" x="2547" y="-302.3" font-family="Times,serif" font-size="14.00">var.cors_origin_to_allow</text>
</g>
<!-- [root] output.frontend_container_group_name (expand) -->
<g id="node18" class="node">
<title>[root] output.frontend_container_group_name (expand)</title>
<ellipse fill="none" stroke="black" cx="1047" cy="-306" rx="266.45" ry="18"/>
<text text-anchor="middle" x="1047" y="-302.3" font-family="Times,serif" font-size="14.00">[root] output.frontend_container_group_name (expand)</text>
</g>
<!-- [root] output.frontend_container_group_name (expand)&#45;&gt;[root] azurerm_container_group.aci (expand) -->
<g id="edge13" class="edge">
<title>[root] output.frontend_container_group_name (expand)&#45;&gt;[root] azurerm_container_group.aci (expand)</title>
<path fill="none" stroke="black" d="M1117.1,-288.59C1160.84,-278.35 1217.36,-265.12 1263.28,-254.36"/>
<polygon fill="black" stroke="black" points="1264.28,-257.73 1273.21,-252.04 1262.68,-250.91 1264.28,-257.73"/>
</g>
<!-- [root] provider[&quot;registry.terraform.io/hashicorp/azurerm&quot;] (close) -->
<g id="node19" class="node">
<title>[root] provider[&quot;registry.terraform.io/hashicorp/azurerm&quot;] (close)</title>
<ellipse fill="none" stroke="black" cx="1645" cy="-306" rx="313.04" ry="18"/>
<text text-anchor="middle" x="1645" y="-302.3" font-family="Times,serif" font-size="14.00">[root] provider[&quot;registry.terraform.io/hashicorp/azurerm&quot;] (close)</text>
</g>
<!-- [root] provider[&quot;registry.terraform.io/hashicorp/azurerm&quot;] (close)&#45;&gt;[root] azurerm_container_group.aci (expand) -->
<g id="edge14" class="edge">
<title>[root] provider[&quot;registry.terraform.io/hashicorp/azurerm&quot;] (close)&#45;&gt;[root] azurerm_container_group.aci (expand)</title>
<path fill="none" stroke="black" d="M1574.14,-288.41C1530.46,-278.18 1474.26,-265.03 1428.57,-254.33"/>
<polygon fill="black" stroke="black" points="1429.22,-250.89 1418.69,-252.02 1427.63,-257.7 1429.22,-250.89"/>
</g>
<!-- [root] root -->
<g id="node20" class="node">
<title>[root] root</title>
<ellipse fill="none" stroke="black" cx="2119" cy="-378" rx="58.49" ry="18"/>
<text text-anchor="middle" x="2119" y="-374.3" font-family="Times,serif" font-size="14.00">[root] root</text>
</g>
<!-- [root] root&#45;&gt;[root] var.acr_password -->
<g id="edge19" class="edge">
<title>[root] root&#45;&gt;[root] var.acr_password</title>
<path fill="none" stroke="black" d="M2102.07,-360.76C2092.94,-352.01 2081.49,-341.03 2071.32,-331.28"/>
<polygon fill="black" stroke="black" points="2073.5,-328.52 2063.86,-324.12 2068.65,-333.57 2073.5,-328.52"/>
</g>
<!-- [root] root&#45;&gt;[root] var.acr_server -->
<g id="edge20" class="edge">
<title>[root] root&#45;&gt;[root] var.acr_server</title>
<path fill="none" stroke="black" d="M2136.16,-360.76C2145.51,-351.92 2157.25,-340.82 2167.63,-331"/>
<polygon fill="black" stroke="black" points="2170.04,-333.54 2174.9,-324.12 2165.23,-328.45 2170.04,-333.54"/>
</g>
<!-- [root] root&#45;&gt;[root] var.backend_address -->
<g id="edge21" class="edge">
<title>[root] root&#45;&gt;[root] var.backend_address</title>
<path fill="none" stroke="black" d="M2159.49,-364.89C2194.37,-354.45 2245.4,-339.19 2286.3,-326.95"/>
<polygon fill="black" stroke="black" points="2287.35,-330.29 2295.93,-324.07 2285.34,-323.59 2287.35,-330.29"/>
</g>
<!-- [root] root&#45;&gt;[root] var.cors_origin_to_allow -->
<g id="edge22" class="edge">
<title>[root] root&#45;&gt;[root] var.cors_origin_to_allow</title>
<path fill="none" stroke="black" d="M2169.55,-368.85C2231.64,-358.82 2340.47,-341.19 2443.41,-324.26"/>
<polygon fill="black" stroke="black" points="2444.05,-327.7 2453.35,-322.62 2442.91,-320.79 2444.05,-327.7"/>
</g>
<!-- [root] root&#45;&gt;[root] output.frontend_container_group_name (expand) -->
<g id="edge17" class="edge">
<title>[root] root&#45;&gt;[root] output.frontend_container_group_name (expand)</title>
<path fill="none" stroke="black" d="M2062.5,-373.31C1911.19,-363.43 1491.37,-336.02 1241.42,-319.7"/>
<polygon fill="black" stroke="black" points="1241.34,-316.18 1231.13,-319.02 1240.88,-323.17 1241.34,-316.18"/>
</g>
<!-- [root] root&#45;&gt;[root] provider[&quot;registry.terraform.io/hashicorp/azurerm&quot;] (close) -->
<g id="edge18" class="edge">
<title>[root] root&#45;&gt;[root] provider[&quot;registry.terraform.io/hashicorp/azurerm&quot;] (close)</title>
<path fill="none" stroke="black" d="M2067.37,-369.38C1994.76,-358.65 1860.44,-338.82 1762.72,-324.38"/>
<polygon fill="black" stroke="black" points="1763.19,-320.92 1752.78,-322.92 1762.16,-327.84 1763.19,-320.92"/>
</g>
</g>
</svg>
