<?xml version="1.0" encoding="UTF-8" standalone="no"?>
<!DOCTYPE svg PUBLIC "-//W3C//DTD SVG 1.1//EN"
 "http://www.w3.org/Graphics/SVG/1.1/DTD/svg11.dtd">
<!-- Generated by graphviz version 5.0.1 (0)
 -->
<!-- Pages: 1 -->
<svg width="3296pt" height="476pt"
 viewBox="0.00 0.00 3295.88 476.00" xmlns="http://www.w3.org/2000/svg" xmlns:xlink="http://www.w3.org/1999/xlink">
<g id="graph0" class="graph" transform="scale(1 1) rotate(0) translate(4 472)">
<polygon fill="white" stroke="none" points="-4,4 -4,-472 3291.88,-472 3291.88,4 -4,4"/>
<!-- [root] azurerm_container_registry.acr (expand) -->
<g id="node1" class="node">
<title>[root] azurerm_container_registry.acr (expand)</title>
<polygon fill="none" stroke="black" points="1098.88,-324 859.88,-324 859.88,-288 1098.88,-288 1098.88,-324"/>
<text text-anchor="middle" x="979.38" y="-302.3" font-family="Times,serif" font-size="14.00">azurerm_container_registry.acr</text>
</g>
<!-- [root] azurerm_resource_group.rg (expand) -->
<g id="node4" class="node">
<title>[root] azurerm_resource_group.rg (expand)</title>
<polygon fill="none" stroke="black" points="1846.88,-180 1631.88,-180 1631.88,-144 1846.88,-144 1846.88,-180"/>
<text text-anchor="middle" x="1739.38" y="-158.3" font-family="Times,serif" font-size="14.00">azurerm_resource_group.rg</text>
</g>
<!-- [root] azurerm_container_registry.acr (expand)&#45;&gt;[root] azurerm_resource_group.rg (expand) -->
<g id="edge1" class="edge">
<title>[root] azurerm_container_registry.acr (expand)&#45;&gt;[root] azurerm_resource_group.rg (expand)</title>
<path fill="none" stroke="black" d="M977.53,-287.94C976.37,-267.49 978,-233.73 998.38,-216 1044.23,-176.11 1424.21,-166.23 1621.48,-163.79"/>
<polygon fill="black" stroke="black" points="1621.64,-167.29 1631.6,-163.67 1621.56,-160.29 1621.64,-167.29"/>
</g>
<!-- [root] var.container_registry_name -->
<g id="node9" class="node">
<title>[root] var.container_registry_name</title>
<polygon fill="none" stroke="black" points="1221.38,-252 1007.38,-252 1007.38,-216 1227.38,-216 1227.38,-246 1221.38,-252"/>
<polyline fill="none" stroke="black" points="1221.38,-252 1221.38,-246"/>
<polyline fill="none" stroke="black" points="1227.38,-246 1221.38,-246"/>
<text text-anchor="middle" x="1117.38" y="-230.3" font-family="Times,serif" font-size="14.00">var.container_registry_name</text>
</g>
<!-- [root] azurerm_container_registry.acr (expand)&#45;&gt;[root] var.container_registry_name -->
<g id="edge2" class="edge">
<title>[root] azurerm_container_registry.acr (expand)&#45;&gt;[root] var.container_registry_name</title>
<path fill="none" stroke="black" d="M1013.14,-287.88C1031.6,-278.51 1054.66,-266.81 1074.4,-256.8"/>
<polygon fill="black" stroke="black" points="1076.16,-259.83 1083.49,-252.19 1072.99,-253.59 1076.16,-259.83"/>
</g>
<!-- [root] azurerm_cosmosdb_account.db_account (expand) -->
<g id="node2" class="node">
<title>[root] azurerm_cosmosdb_account.db_account (expand)</title>
<polygon fill="none" stroke="black" points="1417.88,-324 1116.88,-324 1116.88,-288 1417.88,-288 1417.88,-324"/>
<text text-anchor="middle" x="1267.38" y="-302.3" font-family="Times,serif" font-size="14.00">azurerm_cosmosdb_account.db_account</text>
</g>
<!-- [root] azurerm_cosmosdb_account.db_account (expand)&#45;&gt;[root] azurerm_resource_group.rg (expand) -->
<g id="edge3" class="edge">
<title>[root] azurerm_cosmosdb_account.db_account (expand)&#45;&gt;[root] azurerm_resource_group.rg (expand)</title>
<path fill="none" stroke="black" d="M1265.65,-287.74C1264.66,-267.39 1266.52,-234.08 1286.38,-216 1310.81,-193.77 1495.83,-178 1621.73,-169.72"/>
<polygon fill="black" stroke="black" points="1622.08,-173.2 1631.83,-169.06 1621.62,-166.22 1622.08,-173.2"/>
</g>
<!-- [root] var.cosmos_db_account_name -->
<g id="node10" class="node">
<title>[root] var.cosmos_db_account_name</title>
<polygon fill="none" stroke="black" points="1517.38,-252 1295.38,-252 1295.38,-216 1523.38,-216 1523.38,-246 1517.38,-252"/>
<polyline fill="none" stroke="black" points="1517.38,-252 1517.38,-246"/>
<polyline fill="none" stroke="black" points="1523.38,-246 1517.38,-246"/>
<text text-anchor="middle" x="1409.38" y="-230.3" font-family="Times,serif" font-size="14.00">var.cosmos_db_account_name</text>
</g>
<!-- [root] azurerm_cosmosdb_account.db_account (expand)&#45;&gt;[root] var.cosmos_db_account_name -->
<g id="edge4" class="edge">
<title>[root] azurerm_cosmosdb_account.db_account (expand)&#45;&gt;[root] var.cosmos_db_account_name</title>
<path fill="none" stroke="black" d="M1302.12,-287.88C1321.2,-278.47 1345.06,-266.71 1365.43,-256.67"/>
<polygon fill="black" stroke="black" points="1367.09,-259.75 1374.51,-252.19 1363.99,-253.47 1367.09,-259.75"/>
</g>
<!-- [root] azurerm_redis_cache.redis (expand) -->
<g id="node3" class="node">
<title>[root] azurerm_redis_cache.redis (expand)</title>
<polygon fill="none" stroke="black" points="1724.88,-324 1517.88,-324 1517.88,-288 1724.88,-288 1724.88,-324"/>
<text text-anchor="middle" x="1621.38" y="-302.3" font-family="Times,serif" font-size="14.00">azurerm_redis_cache.redis</text>
</g>
<!-- [root] azurerm_redis_cache.redis (expand)&#45;&gt;[root] azurerm_resource_group.rg (expand) -->
<g id="edge5" class="edge">
<title>[root] azurerm_redis_cache.redis (expand)&#45;&gt;[root] azurerm_resource_group.rg (expand)</title>
<path fill="none" stroke="black" d="M1656.29,-287.87C1671.73,-278.91 1689.12,-266.72 1701.38,-252 1716.44,-233.92 1726.4,-208.98 1732.33,-190.1"/>
<polygon fill="black" stroke="black" points="1735.74,-190.9 1735.21,-180.32 1729.02,-188.92 1735.74,-190.9"/>
</g>
<!-- [root] var.redis_db_name -->
<g id="node14" class="node">
<title>[root] var.redis_db_name</title>
<polygon fill="none" stroke="black" points="1686.88,-252 1543.88,-252 1543.88,-216 1692.88,-216 1692.88,-246 1686.88,-252"/>
<polyline fill="none" stroke="black" points="1686.88,-252 1686.88,-246"/>
<polyline fill="none" stroke="black" points="1692.88,-246 1686.88,-246"/>
<text text-anchor="middle" x="1618.38" y="-230.3" font-family="Times,serif" font-size="14.00">var.redis_db_name</text>
</g>
<!-- [root] azurerm_redis_cache.redis (expand)&#45;&gt;[root] var.redis_db_name -->
<g id="edge6" class="edge">
<title>[root] azurerm_redis_cache.redis (expand)&#45;&gt;[root] var.redis_db_name</title>
<path fill="none" stroke="black" d="M1620.64,-287.7C1620.31,-279.98 1619.91,-270.71 1619.54,-262.11"/>
<polygon fill="black" stroke="black" points="1623.04,-261.95 1619.11,-252.1 1616.04,-262.25 1623.04,-261.95"/>
</g>
<!-- [root] provider[&quot;registry.terraform.io/hashicorp/azurerm&quot;] -->
<g id="node8" class="node">
<title>[root] provider[&quot;registry.terraform.io/hashicorp/azurerm&quot;]</title>
<polygon fill="none" stroke="black" points="1317.38,-108 962.79,-90 1317.38,-72 1671.97,-90 1317.38,-108"/>
<text text-anchor="middle" x="1317.38" y="-86.3" font-family="Times,serif" font-size="14.00">provider[&quot;registry.terraform.io/hashicorp/azurerm&quot;]</text>
</g>
<!-- [root] azurerm_resource_group.rg (expand)&#45;&gt;[root] provider[&quot;registry.terraform.io/hashicorp/azurerm&quot;] -->
<g id="edge7" class="edge">
<title>[root] azurerm_resource_group.rg (expand)&#45;&gt;[root] provider[&quot;registry.terraform.io/hashicorp/azurerm&quot;]</title>
<path fill="none" stroke="black" d="M1636.69,-143.97C1566.14,-132.26 1473.43,-116.89 1406.1,-105.72"/>
<polygon fill="black" stroke="black" points="1406.37,-102.21 1395.94,-104.03 1405.23,-109.12 1406.37,-102.21"/>
</g>
<!-- [root] var.location -->
<g id="node12" class="node">
<title>[root] var.location</title>
<polygon fill="none" stroke="black" points="1782.88,-108 1689.88,-108 1689.88,-72 1788.88,-72 1788.88,-102 1782.88,-108"/>
<polyline fill="none" stroke="black" points="1782.88,-108 1782.88,-102"/>
<polyline fill="none" stroke="black" points="1788.88,-102 1782.88,-102"/>
<text text-anchor="middle" x="1739.38" y="-86.3" font-family="Times,serif" font-size="14.00">var.location</text>
</g>
<!-- [root] azurerm_resource_group.rg (expand)&#45;&gt;[root] var.location -->
<g id="edge8" class="edge">
<title>[root] azurerm_resource_group.rg (expand)&#45;&gt;[root] var.location</title>
<path fill="none" stroke="black" d="M1739.38,-143.7C1739.38,-135.98 1739.38,-126.71 1739.38,-118.11"/>
<polygon fill="black" stroke="black" points="1742.88,-118.1 1739.38,-108.1 1735.88,-118.1 1742.88,-118.1"/>
</g>
<!-- [root] var.resource_group_name -->
<g id="node15" class="node">
<title>[root] var.resource_group_name</title>
<polygon fill="none" stroke="black" points="2001.38,-108 1807.38,-108 1807.38,-72 2007.38,-72 2007.38,-102 2001.38,-108"/>
<polyline fill="none" stroke="black" points="2001.38,-108 2001.38,-102"/>
<polyline fill="none" stroke="black" points="2007.38,-102 2001.38,-102"/>
<text text-anchor="middle" x="1907.38" y="-86.3" font-family="Times,serif" font-size="14.00">var.resource_group_name</text>
</g>
<!-- [root] azurerm_resource_group.rg (expand)&#45;&gt;[root] var.resource_group_name -->
<g id="edge9" class="edge">
<title>[root] azurerm_resource_group.rg (expand)&#45;&gt;[root] var.resource_group_name</title>
<path fill="none" stroke="black" d="M1780.48,-143.88C1803.55,-134.26 1832.52,-122.19 1856.95,-112.01"/>
<polygon fill="black" stroke="black" points="1858.53,-115.15 1866.42,-108.07 1855.84,-108.68 1858.53,-115.15"/>
</g>
<!-- [root] azurerm_storage_account.sa (expand) -->
<g id="node5" class="node">
<title>[root] azurerm_storage_account.sa (expand)</title>
<polygon fill="none" stroke="black" points="2500.38,-252 2280.38,-252 2280.38,-216 2500.38,-216 2500.38,-252"/>
<text text-anchor="middle" x="2390.38" y="-230.3" font-family="Times,serif" font-size="14.00">azurerm_storage_account.sa</text>
</g>
<!-- [root] azurerm_storage_account.sa (expand)&#45;&gt;[root] azurerm_resource_group.rg (expand) -->
<g id="edge10" class="edge">
<title>[root] azurerm_storage_account.sa (expand)&#45;&gt;[root] azurerm_resource_group.rg (expand)</title>
<path fill="none" stroke="black" d="M2280.2,-217.69C2275.53,-217.1 2270.91,-216.54 2266.38,-216 2125.95,-199.32 1964.06,-183.55 1857.17,-173.62"/>
<polygon fill="black" stroke="black" points="1857.28,-170.12 1847,-172.68 1856.63,-177.09 1857.28,-170.12"/>
</g>
<!-- [root] var.frontend_container_group_name -->
<g id="node11" class="node">
<title>[root] var.frontend_container_group_name</title>
<polygon fill="none" stroke="black" points="2648.88,-180 2381.88,-180 2381.88,-144 2654.88,-144 2654.88,-174 2648.88,-180"/>
<polyline fill="none" stroke="black" points="2648.88,-180 2648.88,-174"/>
<polyline fill="none" stroke="black" points="2654.88,-174 2648.88,-174"/>
<text text-anchor="middle" x="2518.38" y="-158.3" font-family="Times,serif" font-size="14.00">var.frontend_container_group_name</text>
</g>
<!-- [root] azurerm_storage_account.sa (expand)&#45;&gt;[root] var.frontend_container_group_name -->
<g id="edge11" class="edge">
<title>[root] azurerm_storage_account.sa (expand)&#45;&gt;[root] var.frontend_container_group_name</title>
<path fill="none" stroke="black" d="M2421.69,-215.88C2438.58,-206.64 2459.63,-195.13 2477.76,-185.21"/>
<polygon fill="black" stroke="black" points="2479.85,-188.06 2486.95,-180.19 2476.49,-181.92 2479.85,-188.06"/>
</g>
<!-- [root] var.storage_account_name -->
<g id="node16" class="node">
<title>[root] var.storage_account_name</title>
<polygon fill="none" stroke="black" points="2357.88,-180 2158.88,-180 2158.88,-144 2363.88,-144 2363.88,-174 2357.88,-180"/>
<polyline fill="none" stroke="black" points="2357.88,-180 2357.88,-174"/>
<polyline fill="none" stroke="black" points="2363.88,-174 2357.88,-174"/>
<text text-anchor="middle" x="2261.38" y="-158.3" font-family="Times,serif" font-size="14.00">var.storage_account_name</text>
</g>
<!-- [root] azurerm_storage_account.sa (expand)&#45;&gt;[root] var.storage_account_name -->
<g id="edge12" class="edge">
<title>[root] azurerm_storage_account.sa (expand)&#45;&gt;[root] var.storage_account_name</title>
<path fill="none" stroke="black" d="M2358.82,-215.88C2341.72,-206.6 2320.4,-195.03 2302.06,-185.08"/>
<polygon fill="black" stroke="black" points="2303.52,-181.88 2293.06,-180.19 2300.18,-188.04 2303.52,-181.88"/>
</g>
<!-- [root] azurerm_storage_container.sc (expand) -->
<g id="node6" class="node">
<title>[root] azurerm_storage_container.sc (expand)</title>
<polygon fill="none" stroke="black" points="2230.38,-324 2000.38,-324 2000.38,-288 2230.38,-288 2230.38,-324"/>
<text text-anchor="middle" x="2115.38" y="-302.3" font-family="Times,serif" font-size="14.00">azurerm_storage_container.sc</text>
</g>
<!-- [root] azurerm_storage_container.sc (expand)&#45;&gt;[root] azurerm_storage_account.sa (expand) -->
<g id="edge13" class="edge">
<title>[root] azurerm_storage_container.sc (expand)&#45;&gt;[root] azurerm_storage_account.sa (expand)</title>
<path fill="none" stroke="black" d="M2182.3,-287.97C2221.89,-277.89 2272.2,-265.08 2313.43,-254.59"/>
<polygon fill="black" stroke="black" points="2314.33,-257.97 2323.16,-252.11 2312.6,-251.19 2314.33,-257.97"/>
</g>
<!-- [root] var.storage_container_name -->
<g id="node17" class="node">
<title>[root] var.storage_container_name</title>
<polygon fill="none" stroke="black" points="2217.88,-252 2006.88,-252 2006.88,-216 2223.88,-216 2223.88,-246 2217.88,-252"/>
<polyline fill="none" stroke="black" points="2217.88,-252 2217.88,-246"/>
<polyline fill="none" stroke="black" points="2223.88,-246 2217.88,-246"/>
<text text-anchor="middle" x="2115.38" y="-230.3" font-family="Times,serif" font-size="14.00">var.storage_container_name</text>
</g>
<!-- [root] azurerm_storage_container.sc (expand)&#45;&gt;[root] var.storage_container_name -->
<g id="edge14" class="edge">
<title>[root] azurerm_storage_container.sc (expand)&#45;&gt;[root] var.storage_container_name</title>
<path fill="none" stroke="black" d="M2115.38,-287.7C2115.38,-279.98 2115.38,-270.71 2115.38,-262.11"/>
<polygon fill="black" stroke="black" points="2118.88,-262.1 2115.38,-252.1 2111.88,-262.1 2118.88,-262.1"/>
</g>
<!-- [root] azurerm_virtual_network.vnet (expand) -->
<g id="node7" class="node">
<title>[root] azurerm_virtual_network.vnet (expand)</title>
<polygon fill="none" stroke="black" points="1978.38,-324 1746.38,-324 1746.38,-288 1978.38,-288 1978.38,-324"/>
<text text-anchor="middle" x="1862.38" y="-302.3" font-family="Times,serif" font-size="14.00">azurerm_virtual_network.vnet</text>
</g>
<!-- [root] azurerm_virtual_network.vnet (expand)&#45;&gt;[root] azurerm_resource_group.rg (expand) -->
<g id="edge15" class="edge">
<title>[root] azurerm_virtual_network.vnet (expand)&#45;&gt;[root] azurerm_resource_group.rg (expand)</title>
<path fill="none" stroke="black" d="M1824.41,-287.83C1808.22,-279 1790.16,-266.92 1777.38,-252 1761.98,-234.02 1752.02,-208.87 1746.18,-189.89"/>
<polygon fill="black" stroke="black" points="1749.48,-188.71 1743.35,-180.07 1742.75,-190.64 1749.48,-188.71"/>
</g>
<!-- [root] var.virtual_network_name -->
<g id="node20" class="node">
<title>[root] var.virtual_network_name</title>
<polygon fill="none" stroke="black" points="1981.88,-252 1786.88,-252 1786.88,-216 1987.88,-216 1987.88,-246 1981.88,-252"/>
<polyline fill="none" stroke="black" points="1981.88,-252 1981.88,-246"/>
<polyline fill="none" stroke="black" points="1987.88,-246 1981.88,-246"/>
<text text-anchor="middle" x="1887.38" y="-230.3" font-family="Times,serif" font-size="14.00">var.virtual_network_name</text>
</g>
<!-- [root] azurerm_virtual_network.vnet (expand)&#45;&gt;[root] var.virtual_network_name -->
<g id="edge16" class="edge">
<title>[root] azurerm_virtual_network.vnet (expand)&#45;&gt;[root] var.virtual_network_name</title>
<path fill="none" stroke="black" d="M1868.56,-287.7C1871.37,-279.81 1874.77,-270.3 1877.9,-261.55"/>
<polygon fill="black" stroke="black" points="1881.2,-262.7 1881.27,-252.1 1874.61,-260.34 1881.2,-262.7"/>
</g>
<!-- [root] var.subscription_id -->
<g id="node18" class="node">
<title>[root] var.subscription_id</title>
<polygon fill="none" stroke="black" points="1313.38,-36 1167.38,-36 1167.38,0 1319.38,0 1319.38,-30 1313.38,-36"/>
<polyline fill="none" stroke="black" points="1313.38,-36 1313.38,-30"/>
<polyline fill="none" stroke="black" points="1319.38,-30 1313.38,-30"/>
<text text-anchor="middle" x="1243.38" y="-14.3" font-family="Times,serif" font-size="14.00">var.subscription_id</text>
</g>
<!-- [root] provider[&quot;registry.terraform.io/hashicorp/azurerm&quot;]&#45;&gt;[root] var.subscription_id -->
<g id="edge29" class="edge">
<title>[root] provider[&quot;registry.terraform.io/hashicorp/azurerm&quot;]&#45;&gt;[root] var.subscription_id</title>
<path fill="none" stroke="black" d="M1300.22,-72.76C1290.87,-63.92 1279.13,-52.82 1268.75,-43"/>
<polygon fill="black" stroke="black" points="1271.15,-40.45 1261.48,-36.12 1266.34,-45.54 1271.15,-40.45"/>
</g>
<!-- [root] var.tenant_id -->
<g id="node19" class="node">
<title>[root] var.tenant_id</title>
<polygon fill="none" stroke="black" points="1441.38,-36 1337.38,-36 1337.38,0 1447.38,0 1447.38,-30 1441.38,-36"/>
<polyline fill="none" stroke="black" points="1441.38,-36 1441.38,-30"/>
<polyline fill="none" stroke="black" points="1447.38,-30 1441.38,-30"/>
<text text-anchor="middle" x="1392.38" y="-14.3" font-family="Times,serif" font-size="14.00">var.tenant_id</text>
</g>
<!-- [root] provider[&quot;registry.terraform.io/hashicorp/azurerm&quot;]&#45;&gt;[root] var.tenant_id -->
<g id="edge30" class="edge">
<title>[root] provider[&quot;registry.terraform.io/hashicorp/azurerm&quot;]&#45;&gt;[root] var.tenant_id</title>
<path fill="none" stroke="black" d="M1334.77,-72.76C1344.25,-63.92 1356.15,-52.82 1366.67,-43"/>
<polygon fill="black" stroke="black" points="1369.11,-45.51 1374.03,-36.12 1364.33,-40.39 1369.11,-45.51"/>
</g>
<!-- [root] var.mongo_db_name -->
<g id="node13" class="node">
<title>[root] var.mongo_db_name</title>
<polygon fill="none" stroke="black" points="3120.88,-396 2965.88,-396 2965.88,-360 3126.88,-360 3126.88,-390 3120.88,-396"/>
<polyline fill="none" stroke="black" points="3120.88,-396 3120.88,-390"/>
<polyline fill="none" stroke="black" points="3126.88,-390 3120.88,-390"/>
<text text-anchor="middle" x="3046.38" y="-374.3" font-family="Times,serif" font-size="14.00">var.mongo_db_name</text>
</g>
<!-- [root] var.whitelisted_ip -->
<g id="node21" class="node">
<title>[root] var.whitelisted_ip</title>
<polygon fill="none" stroke="black" points="3281.88,-396 3144.88,-396 3144.88,-360 3287.88,-360 3287.88,-390 3281.88,-396"/>
<polyline fill="none" stroke="black" points="3281.88,-396 3281.88,-390"/>
<polyline fill="none" stroke="black" points="3287.88,-390 3281.88,-390"/>
<text text-anchor="middle" x="3216.38" y="-374.3" font-family="Times,serif" font-size="14.00">var.whitelisted_ip</text>
</g>
<!-- [root] output.container_registry_name (expand) -->
<g id="node22" class="node">
<title>[root] output.container_registry_name (expand)</title>
<ellipse fill="none" stroke="black" cx="231.38" cy="-378" rx="231.26" ry="18"/>
<text text-anchor="middle" x="231.38" y="-374.3" font-family="Times,serif" font-size="14.00">[root] output.container_registry_name (expand)</text>
</g>
<!-- [root] output.container_registry_name (expand)&#45;&gt;[root] azurerm_container_registry.acr (expand) -->
<g id="edge17" class="edge">
<title>[root] output.container_registry_name (expand)&#45;&gt;[root] azurerm_container_registry.acr (expand)</title>
<path fill="none" stroke="black" d="M372.95,-363.75C510.1,-350.92 716.34,-331.62 849.41,-319.16"/>
<polygon fill="black" stroke="black" points="850.03,-322.62 859.66,-318.2 849.38,-315.65 850.03,-322.62"/>
</g>
<!-- [root] output.cosmodb_account_name (expand) -->
<g id="node23" class="node">
<title>[root] output.cosmodb_account_name (expand)</title>
<ellipse fill="none" stroke="black" cx="708.38" cy="-378" rx="227.46" ry="18"/>
<text text-anchor="middle" x="708.38" y="-374.3" font-family="Times,serif" font-size="14.00">[root] output.cosmodb_account_name (expand)</text>
</g>
<!-- [root] output.cosmodb_account_name (expand)&#45;&gt;[root] azurerm_cosmosdb_account.db_account (expand) -->
<g id="edge18" class="edge">
<title>[root] output.cosmodb_account_name (expand)&#45;&gt;[root] azurerm_cosmosdb_account.db_account (expand)</title>
<path fill="none" stroke="black" d="M824.2,-362.5C910.44,-351.7 1028.78,-336.88 1121.48,-325.27"/>
<polygon fill="black" stroke="black" points="1122.02,-328.73 1131.51,-324.01 1121.15,-321.78 1122.02,-328.73"/>
</g>
<!-- [root] output.redis_name (expand) -->
<g id="node24" class="node">
<title>[root] output.redis_name (expand)</title>
<ellipse fill="none" stroke="black" cx="1768.38" cy="-378" rx="169.77" ry="18"/>
<text text-anchor="middle" x="1768.38" y="-374.3" font-family="Times,serif" font-size="14.00">[root] output.redis_name (expand)</text>
</g>
<!-- [root] output.redis_name (expand)&#45;&gt;[root] azurerm_redis_cache.redis (expand) -->
<g id="edge19" class="edge">
<title>[root] output.redis_name (expand)&#45;&gt;[root] azurerm_redis_cache.redis (expand)</title>
<path fill="none" stroke="black" d="M1733.17,-360.23C1713.19,-350.72 1687.98,-338.71 1666.56,-328.51"/>
<polygon fill="black" stroke="black" points="1667.86,-325.26 1657.32,-324.12 1664.85,-331.58 1667.86,-325.26"/>
</g>
<!-- [root] output.resource_group_name (expand) -->
<g id="node25" class="node">
<title>[root] output.resource_group_name (expand)</title>
<ellipse fill="none" stroke="black" cx="2474.38" cy="-306" rx="218.26" ry="18"/>
<text text-anchor="middle" x="2474.38" y="-302.3" font-family="Times,serif" font-size="14.00">[root] output.resource_group_name (expand)</text>
</g>
<!-- [root] output.resource_group_name (expand)&#45;&gt;[root] azurerm_resource_group.rg (expand) -->
<g id="edge20" class="edge">
<title>[root] output.resource_group_name (expand)&#45;&gt;[root] azurerm_resource_group.rg (expand)</title>
<path fill="none" stroke="black" d="M2377.51,-289.83C2342.63,-281.8 2303.9,-269.78 2271.38,-252 2250.68,-240.68 2253.86,-225.75 2232.38,-216 2167.67,-186.62 1981.36,-173.09 1857.22,-167.19"/>
<polygon fill="black" stroke="black" points="1857.05,-163.68 1846.9,-166.71 1856.73,-170.67 1857.05,-163.68"/>
</g>
<!-- [root] output.storage_account_name (expand) -->
<g id="node26" class="node">
<title>[root] output.storage_account_name (expand)</title>
<ellipse fill="none" stroke="black" cx="2936.38" cy="-306" rx="221.76" ry="18"/>
<text text-anchor="middle" x="2936.38" y="-302.3" font-family="Times,serif" font-size="14.00">[root] output.storage_account_name (expand)</text>
</g>
<!-- [root] output.storage_account_name (expand)&#45;&gt;[root] azurerm_storage_account.sa (expand) -->
<g id="edge21" class="edge">
<title>[root] output.storage_account_name (expand)&#45;&gt;[root] azurerm_storage_account.sa (expand)</title>
<path fill="none" stroke="black" d="M2823.25,-290.5C2731.93,-278.79 2603.77,-262.36 2510.61,-250.41"/>
<polygon fill="black" stroke="black" points="2510.93,-246.93 2500.57,-249.13 2510.04,-253.87 2510.93,-246.93"/>
</g>
<!-- [root] output.storage_container_name (expand) -->
<g id="node27" class="node">
<title>[root] output.storage_container_name (expand)</title>
<ellipse fill="none" stroke="black" cx="2642.38" cy="-378" rx="229.36" ry="18"/>
<text text-anchor="middle" x="2642.38" y="-374.3" font-family="Times,serif" font-size="14.00">[root] output.storage_container_name (expand)</text>
</g>
<!-- [root] output.storage_container_name (expand)&#45;&gt;[root] azurerm_storage_container.sc (expand) -->
<g id="edge22" class="edge">
<title>[root] output.storage_container_name (expand)&#45;&gt;[root] azurerm_storage_container.sc (expand)</title>
<path fill="none" stroke="black" d="M2531.26,-362.24C2446.21,-350.94 2328.88,-335.36 2240.53,-323.62"/>
<polygon fill="black" stroke="black" points="2240.82,-320.13 2230.45,-322.28 2239.9,-327.07 2240.82,-320.13"/>
</g>
<!-- [root] output.virtual_network_name (expand) -->
<g id="node28" class="node">
<title>[root] output.virtual_network_name (expand)</title>
<ellipse fill="none" stroke="black" cx="2175.38" cy="-378" rx="219.86" ry="18"/>
<text text-anchor="middle" x="2175.38" y="-374.3" font-family="Times,serif" font-size="14.00">[root] output.virtual_network_name (expand)</text>
</g>
<!-- [root] output.virtual_network_name (expand)&#45;&gt;[root] azurerm_virtual_network.vnet (expand) -->
<g id="edge23" class="edge">
<title>[root] output.virtual_network_name (expand)&#45;&gt;[root] azurerm_virtual_network.vnet (expand)</title>
<path fill="none" stroke="black" d="M2103.57,-360.94C2057.39,-350.61 1997.13,-337.14 1948.4,-326.24"/>
<polygon fill="black" stroke="black" points="1949.02,-322.79 1938.5,-324.02 1947.49,-329.62 1949.02,-322.79"/>
</g>
<!-- [root] provider[&quot;registry.terraform.io/hashicorp/azurerm&quot;] (close) -->
<g id="node29" class="node">
<title>[root] provider[&quot;registry.terraform.io/hashicorp/azurerm&quot;] (close)</title>
<ellipse fill="none" stroke="black" cx="1267.38" cy="-378" rx="313.04" ry="18"/>
<text text-anchor="middle" x="1267.38" y="-374.3" font-family="Times,serif" font-size="14.00">[root] provider[&quot;registry.terraform.io/hashicorp/azurerm&quot;] (close)</text>
</g>
<!-- [root] provider[&quot;registry.terraform.io/hashicorp/azurerm&quot;] (close)&#45;&gt;[root] azurerm_container_registry.acr (expand) -->
<g id="edge24" class="edge">
<title>[root] provider[&quot;registry.terraform.io/hashicorp/azurerm&quot;] (close)&#45;&gt;[root] azurerm_container_registry.acr (expand)</title>
<path fill="none" stroke="black" d="M1199.13,-360.41C1157.14,-350.21 1103.15,-337.08 1059.19,-326.4"/>
<polygon fill="black" stroke="black" points="1059.94,-322.98 1049.39,-324.02 1058.28,-329.78 1059.94,-322.98"/>
</g>
<!-- [root] provider[&quot;registry.terraform.io/hashicorp/azurerm&quot;] (close)&#45;&gt;[root] azurerm_cosmosdb_account.db_account (expand) -->
<g id="edge25" class="edge">
<title>[root] provider[&quot;registry.terraform.io/hashicorp/azurerm&quot;] (close)&#45;&gt;[root] azurerm_cosmosdb_account.db_account (expand)</title>
<path fill="none" stroke="black" d="M1267.38,-359.7C1267.38,-351.98 1267.38,-342.71 1267.38,-334.11"/>
<polygon fill="black" stroke="black" points="1270.88,-334.1 1267.38,-324.1 1263.88,-334.1 1270.88,-334.1"/>
</g>
<!-- [root] provider[&quot;registry.terraform.io/hashicorp/azurerm&quot;] (close)&#45;&gt;[root] azurerm_redis_cache.redis (expand) -->
<g id="edge26" class="edge">
<title>[root] provider[&quot;registry.terraform.io/hashicorp/azurerm&quot;] (close)&#45;&gt;[root] azurerm_redis_cache.redis (expand)</title>
<path fill="none" stroke="black" d="M1350.38,-360.59C1402.71,-350.24 1470.48,-336.84 1525.16,-326.03"/>
<polygon fill="black" stroke="black" points="1526.07,-329.41 1535.21,-324.04 1524.72,-322.55 1526.07,-329.41"/>
</g>
<!-- [root] provider[&quot;registry.terraform.io/hashicorp/azurerm&quot;] (close)&#45;&gt;[root] azurerm_storage_container.sc (expand) -->
<g id="edge27" class="edge">
<title>[root] provider[&quot;registry.terraform.io/hashicorp/azurerm&quot;] (close)&#45;&gt;[root] azurerm_storage_container.sc (expand)</title>
<path fill="none" stroke="black" d="M1478.75,-364.71C1622.38,-355.55 1816.57,-341.61 1987.38,-324 1988.31,-323.9 1989.24,-323.81 1990.17,-323.71"/>
<polygon fill="black" stroke="black" points="1990.72,-327.17 2000.28,-322.61 1989.96,-320.21 1990.72,-327.17"/>
</g>
<!-- [root] provider[&quot;registry.terraform.io/hashicorp/azurerm&quot;] (close)&#45;&gt;[root] azurerm_virtual_network.vnet (expand) -->
<g id="edge28" class="edge">
<title>[root] provider[&quot;registry.terraform.io/hashicorp/azurerm&quot;] (close)&#45;&gt;[root] azurerm_virtual_network.vnet (expand)</title>
<path fill="none" stroke="black" d="M1406.37,-361.85C1499.05,-351.58 1623.57,-337.48 1733.38,-324 1734.31,-323.89 1735.25,-323.77 1736.19,-323.65"/>
<polygon fill="black" stroke="black" points="1736.87,-327.1 1746.36,-322.39 1736,-320.15 1736.87,-327.1"/>
</g>
<!-- [root] root -->
<g id="node30" class="node">
<title>[root] root</title>
<ellipse fill="none" stroke="black" cx="2408.38" cy="-450" rx="58.49" ry="18"/>
<text text-anchor="middle" x="2408.38" y="-446.3" font-family="Times,serif" font-size="14.00">[root] root</text>
</g>
<!-- [root] root&#45;&gt;[root] var.mongo_db_name -->
<g id="edge39" class="edge">
<title>[root] root&#45;&gt;[root] var.mongo_db_name</title>
<path fill="none" stroke="black" d="M2464.84,-444.98C2563.71,-437.61 2774.51,-420.42 2951.38,-396 2952.86,-395.8 2954.35,-395.59 2955.85,-395.37"/>
<polygon fill="black" stroke="black" points="2956.49,-398.81 2965.86,-393.87 2955.45,-391.89 2956.49,-398.81"/>
</g>
<!-- [root] root&#45;&gt;[root] var.whitelisted_ip -->
<g id="edge40" class="edge">
<title>[root] root&#45;&gt;[root] var.whitelisted_ip</title>
<path fill="none" stroke="black" d="M2466.7,-447.46C2588.96,-443.64 2881.06,-431.46 3134.37,-396.18"/>
<polygon fill="black" stroke="black" points="3135.09,-399.62 3144.5,-394.76 3134.11,-392.69 3135.09,-399.62"/>
</g>
<!-- [root] root&#45;&gt;[root] output.container_registry_name (expand) -->
<g id="edge31" class="edge">
<title>[root] root&#45;&gt;[root] output.container_registry_name (expand)</title>
<path fill="none" stroke="black" d="M2350.14,-448.32C2115.07,-445.39 1213.32,-432.26 472.38,-396 448.91,-394.85 424.16,-393.39 399.83,-391.81"/>
<polygon fill="black" stroke="black" points="400.01,-388.32 389.8,-391.15 399.55,-395.3 400.01,-388.32"/>
</g>
<!-- [root] root&#45;&gt;[root] output.cosmodb_account_name (expand) -->
<g id="edge32" class="edge">
<title>[root] root&#45;&gt;[root] output.cosmodb_account_name (expand)</title>
<path fill="none" stroke="black" d="M2350.15,-447.63C2152.84,-442.83 1491.35,-425.46 945.38,-396 922.76,-394.78 898.95,-393.3 875.48,-391.73"/>
<polygon fill="black" stroke="black" points="875.67,-388.23 865.45,-391.05 875.19,-395.22 875.67,-388.23"/>
</g>
<!-- [root] root&#45;&gt;[root] output.redis_name (expand) -->
<g id="edge33" class="edge">
<title>[root] root&#45;&gt;[root] output.redis_name (expand)</title>
<path fill="none" stroke="black" d="M2354.09,-443.06C2252.58,-431.96 2031.69,-407.8 1892.06,-392.53"/>
<polygon fill="black" stroke="black" points="1892.06,-389.01 1881.74,-391.4 1891.3,-395.96 1892.06,-389.01"/>
</g>
<!-- [root] root&#45;&gt;[root] output.resource_group_name (expand) -->
<g id="edge34" class="edge">
<title>[root] root&#45;&gt;[root] output.resource_group_name (expand)</title>
<path fill="none" stroke="black" d="M2466.35,-446.74C2586.37,-441.46 2853.21,-426.39 2880.38,-396 2891.04,-384.07 2890.94,-372.02 2880.38,-360 2864.38,-341.78 2750.08,-327.92 2646.83,-318.96"/>
<polygon fill="black" stroke="black" points="2646.81,-315.44 2636.55,-318.08 2646.22,-322.42 2646.81,-315.44"/>
</g>
<!-- [root] root&#45;&gt;[root] output.storage_account_name (expand) -->
<g id="edge35" class="edge">
<title>[root] root&#45;&gt;[root] output.storage_account_name (expand)</title>
<path fill="none" stroke="black" d="M2467.17,-449.86C2582.13,-450.41 2831.34,-445.65 2898.38,-396 2918.04,-381.44 2927.63,-354.65 2932.24,-334.25"/>
<polygon fill="black" stroke="black" points="2935.71,-334.76 2934.23,-324.26 2928.85,-333.39 2935.71,-334.76"/>
</g>
<!-- [root] root&#45;&gt;[root] output.storage_container_name (expand) -->
<g id="edge36" class="edge">
<title>[root] root&#45;&gt;[root] output.storage_container_name (expand)</title>
<path fill="none" stroke="black" d="M2448.87,-436.89C2484.23,-426.31 2536.2,-410.76 2577.38,-398.45"/>
<polygon fill="black" stroke="black" points="2578.48,-401.77 2587.06,-395.55 2576.47,-395.06 2578.48,-401.77"/>
</g>
<!-- [root] root&#45;&gt;[root] output.virtual_network_name (expand) -->
<g id="edge37" class="edge">
<title>[root] root&#45;&gt;[root] output.virtual_network_name (expand)</title>
<path fill="none" stroke="black" d="M2368.06,-436.89C2332.85,-426.31 2281.11,-410.76 2240.11,-398.45"/>
<polygon fill="black" stroke="black" points="2241.05,-395.07 2230.47,-395.55 2239.04,-401.78 2241.05,-395.07"/>
</g>
<!-- [root] root&#45;&gt;[root] provider[&quot;registry.terraform.io/hashicorp/azurerm&quot;] (close) -->
<g id="edge38" class="edge">
<title>[root] root&#45;&gt;[root] provider[&quot;registry.terraform.io/hashicorp/azurerm&quot;] (close)</title>
<path fill="none" stroke="black" d="M2351.41,-445.5C2194.85,-435.9 1751.94,-408.73 1483.17,-392.24"/>
<polygon fill="black" stroke="black" points="1483.08,-388.73 1472.88,-391.61 1482.65,-395.71 1483.08,-388.73"/>
</g>
</g>
</svg>
